<svg width="248" height="248" viewBox="0 0 248 248" fill="none" xmlns="http://www.w3.org/2000/svg">
<circle cx="124" cy="124" r="124" fill="#F3EEFF"/>
<mask id="mask0_3_781" style="mask-type:alpha" maskUnits="userSpaceOnUse" x="0" y="0" width="248" height="248">
<path d="M248 124C248 192.483 192.483 248 124 248C55.5167 248 0 192.483 0 124C0 55.5167 3 0 124 0C248 0 248 55.5167 248 124Z" fill="#EBF3F1"/>
</mask>
<g mask="url(#mask0_3_781)">
<path d="M29 37C29 27.0589 37.0589 19 47 19H201C210.941 19 219 27.0589 219 37V254H29V37Z" fill="white" stroke="#F0EEF3" stroke-width="4"/>
</g>
<path d="M47.42 43.8C47.42 42.976 47.604 42.24 47.972 41.592C48.348 40.936 48.856 40.428 49.496 40.068C50.144 39.7 50.868 39.516 51.668 39.516C52.604 39.516 53.424 39.756 54.128 40.236C54.832 40.716 55.324 41.38 55.604 42.228H53.672C53.48 41.828 53.208 41.528 52.856 41.328C52.512 41.128 52.112 41.028 51.656 41.028C51.168 41.028 50.732 41.144 50.348 41.376C49.972 41.6 49.676 41.92 49.46 42.336C49.252 42.752 49.148 43.24 49.148 43.8C49.148 44.352 49.252 44.84 49.46 45.264C49.676 45.68 49.972 46.004 50.348 46.236C50.732 46.46 51.168 46.572 51.656 46.572C52.112 46.572 52.512 46.472 52.856 46.272C53.208 46.064 53.48 45.76 53.672 45.36H55.604C55.324 46.216 54.832 46.884 54.128 47.364C53.432 47.836 52.612 48.072 51.668 48.072C50.868 48.072 50.144 47.892 49.496 47.532C48.856 47.164 48.348 46.656 47.972 46.008C47.604 45.36 47.42 44.624 47.42 43.8ZM60.7829 41.256C61.2869 41.256 61.7349 41.368 62.1269 41.592C62.5189 41.808 62.8229 42.132 63.0389 42.564C63.2629 42.988 63.3749 43.5 63.3749 44.1V48H61.6949V44.328C61.6949 43.8 61.5629 43.396 61.2989 43.116C61.0349 42.828 60.6749 42.684 60.2189 42.684C59.7549 42.684 59.3869 42.828 59.1149 43.116C58.8509 43.396 58.7189 43.8 58.7189 44.328V48H57.0389V39.12H58.7189V42.18C58.9349 41.892 59.2229 41.668 59.5829 41.508C59.9429 41.34 60.3429 41.256 60.7829 41.256ZM67.9245 48.108C67.2845 48.108 66.7085 47.968 66.1965 47.688C65.6845 47.4 65.2805 46.996 64.9845 46.476C64.6965 45.956 64.5525 45.356 64.5525 44.676C64.5525 43.996 64.7005 43.396 64.9965 42.876C65.3005 42.356 65.7125 41.956 66.2325 41.676C66.7525 41.388 67.3325 41.244 67.9725 41.244C68.6125 41.244 69.1925 41.388 69.7125 41.676C70.2325 41.956 70.6405 42.356 70.9365 42.876C71.2405 43.396 71.3925 43.996 71.3925 44.676C71.3925 45.356 71.2365 45.956 70.9245 46.476C70.6205 46.996 70.2045 47.4 69.6765 47.688C69.1565 47.968 68.5725 48.108 67.9245 48.108ZM67.9245 46.644C68.2285 46.644 68.5125 46.572 68.7765 46.428C69.0485 46.276 69.2645 46.052 69.4245 45.756C69.5845 45.46 69.6645 45.1 69.6645 44.676C69.6645 44.044 69.4965 43.56 69.1605 43.224C68.8325 42.88 68.4285 42.708 67.9485 42.708C67.4685 42.708 67.0645 42.88 66.7365 43.224C66.4165 43.56 66.2565 44.044 66.2565 44.676C66.2565 45.308 66.4125 45.796 66.7245 46.14C67.0445 46.476 67.4445 46.644 67.9245 46.644ZM75.5769 48.108C74.9369 48.108 74.3609 47.968 73.8489 47.688C73.3369 47.4 72.9329 46.996 72.6369 46.476C72.3489 45.956 72.2049 45.356 72.2049 44.676C72.2049 43.996 72.3529 43.396 72.6489 42.876C72.9529 42.356 73.3649 41.956 73.8849 41.676C74.4049 41.388 74.9849 41.244 75.6249 41.244C76.2649 41.244 76.8449 41.388 77.3649 41.676C77.8849 41.956 78.2929 42.356 78.5889 42.876C78.8929 43.396 79.0449 43.996 79.0449 44.676C79.0449 45.356 78.8889 45.956 78.5769 46.476C78.2729 46.996 77.8569 47.4 77.3289 47.688C76.8089 47.968 76.2249 48.108 75.5769 48.108ZM75.5769 46.644C75.8809 46.644 76.1649 46.572 76.4289 46.428C76.7009 46.276 76.9169 46.052 77.0769 45.756C77.2369 45.46 77.3169 45.1 77.3169 44.676C77.3169 44.044 77.1489 43.56 76.8129 43.224C76.4849 42.88 76.0809 42.708 75.6009 42.708C75.1209 42.708 74.7169 42.88 74.3889 43.224C74.0689 43.56 73.9089 44.044 73.9089 44.676C73.9089 45.308 74.0649 45.796 74.3769 46.14C74.6969 46.476 75.0969 46.644 75.5769 46.644ZM82.8212 48.108C82.2772 48.108 81.7892 48.012 81.3572 47.82C80.9252 47.62 80.5812 47.352 80.3252 47.016C80.0772 46.68 79.9412 46.308 79.9172 45.9H81.6092C81.6412 46.156 81.7652 46.368 81.9812 46.536C82.2052 46.704 82.4812 46.788 82.8092 46.788C83.1292 46.788 83.3772 46.724 83.5532 46.596C83.7372 46.468 83.8292 46.304 83.8292 46.104C83.8292 45.888 83.7172 45.728 83.4932 45.624C83.2772 45.512 82.9292 45.392 82.4492 45.264C81.9532 45.144 81.5452 45.02 81.2252 44.892C80.9132 44.764 80.6412 44.568 80.4092 44.304C80.1852 44.04 80.0732 43.684 80.0732 43.236C80.0732 42.868 80.1772 42.532 80.3852 42.228C80.6012 41.924 80.9052 41.684 81.2972 41.508C81.6972 41.332 82.1652 41.244 82.7012 41.244C83.4932 41.244 84.1252 41.444 84.5972 41.844C85.0692 42.236 85.3292 42.768 85.3772 43.44H83.7692C83.7452 43.176 83.6332 42.968 83.4332 42.816C83.2412 42.656 82.9812 42.576 82.6532 42.576C82.3492 42.576 82.1132 42.632 81.9452 42.744C81.7852 42.856 81.7052 43.012 81.7052 43.212C81.7052 43.436 81.8172 43.608 82.0412 43.728C82.2652 43.84 82.6132 43.956 83.0852 44.076C83.5652 44.196 83.9612 44.32 84.2732 44.448C84.5852 44.576 84.8532 44.776 85.0772 45.048C85.3092 45.312 85.4292 45.664 85.4372 46.104C85.4372 46.488 85.3292 46.832 85.1132 47.136C84.9052 47.44 84.6012 47.68 84.2012 47.856C83.8092 48.024 83.3492 48.108 82.8212 48.108ZM92.9963 44.532C92.9963 44.772 92.9803 44.988 92.9483 45.18H88.0883C88.1283 45.66 88.2963 46.036 88.5923 46.308C88.8883 46.58 89.2523 46.716 89.6843 46.716C90.3083 46.716 90.7523 46.448 91.0163 45.912H92.8283C92.6363 46.552 92.2683 47.08 91.7243 47.496C91.1803 47.904 90.5123 48.108 89.7203 48.108C89.0803 48.108 88.5043 47.968 87.9923 47.688C87.4883 47.4 87.0923 46.996 86.8043 46.476C86.5243 45.956 86.3843 45.356 86.3843 44.676C86.3843 43.988 86.5243 43.384 86.8043 42.864C87.0843 42.344 87.4763 41.944 87.9803 41.664C88.4843 41.384 89.0643 41.244 89.7203 41.244C90.3523 41.244 90.9163 41.38 91.4123 41.652C91.9163 41.924 92.3043 42.312 92.5763 42.816C92.8563 43.312 92.9963 43.884 92.9963 44.532ZM91.2563 44.052C91.2483 43.62 91.0923 43.276 90.7883 43.02C90.4843 42.756 90.1123 42.624 89.6723 42.624C89.2563 42.624 88.9043 42.752 88.6163 43.008C88.3363 43.256 88.1643 43.604 88.1003 44.052H91.2563ZM96.6739 43.8C96.6739 42.976 96.8579 42.24 97.2259 41.592C97.6019 40.936 98.1099 40.428 98.7499 40.068C99.3979 39.7 100.122 39.516 100.922 39.516C101.858 39.516 102.678 39.756 103.382 40.236C104.086 40.716 104.578 41.38 104.858 42.228H102.926C102.734 41.828 102.462 41.528 102.11 41.328C101.766 41.128 101.366 41.028 100.91 41.028C100.422 41.028 99.9859 41.144 99.6019 41.376C99.2259 41.6 98.9299 41.92 98.7139 42.336C98.5059 42.752 98.4019 43.24 98.4019 43.8C98.4019 44.352 98.5059 44.84 98.7139 45.264C98.9299 45.68 99.2259 46.004 99.6019 46.236C99.9859 46.46 100.422 46.572 100.91 46.572C101.366 46.572 101.766 46.472 102.11 46.272C102.462 46.064 102.734 45.76 102.926 45.36H104.858C104.578 46.216 104.086 46.884 103.382 47.364C102.686 47.836 101.866 48.072 100.922 48.072C100.122 48.072 99.3979 47.892 98.7499 47.532C98.1099 47.164 97.6019 46.656 97.2259 46.008C96.8579 45.36 96.6739 44.624 96.6739 43.8ZM109.245 48.108C108.605 48.108 108.029 47.968 107.517 47.688C107.005 47.4 106.601 46.996 106.305 46.476C106.017 45.956 105.873 45.356 105.873 44.676C105.873 43.996 106.021 43.396 106.317 42.876C106.621 42.356 107.033 41.956 107.553 41.676C108.073 41.388 108.653 41.244 109.293 41.244C109.933 41.244 110.513 41.388 111.033 41.676C111.553 41.956 111.961 42.356 112.257 42.876C112.561 43.396 112.713 43.996 112.713 44.676C112.713 45.356 112.557 45.956 112.245 46.476C111.941 46.996 111.525 47.4 110.997 47.688C110.477 47.968 109.893 48.108 109.245 48.108ZM109.245 46.644C109.549 46.644 109.833 46.572 110.097 46.428C110.369 46.276 110.585 46.052 110.745 45.756C110.905 45.46 110.985 45.1 110.985 44.676C110.985 44.044 110.817 43.56 110.481 43.224C110.153 42.88 109.749 42.708 109.269 42.708C108.789 42.708 108.385 42.88 108.057 43.224C107.737 43.56 107.577 44.044 107.577 44.676C107.577 45.308 107.733 45.796 108.045 46.14C108.365 46.476 108.765 46.644 109.245 46.644ZM115.625 39.12V48H113.945V39.12H115.625ZM120.237 48.108C119.597 48.108 119.021 47.968 118.509 47.688C117.997 47.4 117.593 46.996 117.297 46.476C117.009 45.956 116.865 45.356 116.865 44.676C116.865 43.996 117.013 43.396 117.309 42.876C117.613 42.356 118.025 41.956 118.545 41.676C119.065 41.388 119.645 41.244 120.285 41.244C120.925 41.244 121.505 41.388 122.025 41.676C122.545 41.956 122.953 42.356 123.249 42.876C123.553 43.396 123.705 43.996 123.705 44.676C123.705 45.356 123.549 45.956 123.237 46.476C122.933 46.996 122.517 47.4 121.989 47.688C121.469 47.968 120.885 48.108 120.237 48.108ZM120.237 46.644C120.541 46.644 120.825 46.572 121.089 46.428C121.361 46.276 121.577 46.052 121.737 45.756C121.897 45.46 121.977 45.1 121.977 44.676C121.977 44.044 121.809 43.56 121.473 43.224C121.145 42.88 120.741 42.708 120.261 42.708C119.781 42.708 119.377 42.88 119.049 43.224C118.729 43.56 118.569 44.044 118.569 44.676C118.569 45.308 118.725 45.796 119.037 46.14C119.357 46.476 119.757 46.644 120.237 46.644ZM126.617 42.384C126.833 42.032 127.113 41.756 127.457 41.556C127.809 41.356 128.209 41.256 128.657 41.256V43.02H128.213C127.685 43.02 127.285 43.144 127.013 43.392C126.749 43.64 126.617 44.072 126.617 44.688V48H124.937V41.352H126.617V42.384Z" fill="#1B1345"/>
<path d="M185 44C185 47.3137 187.686 50 191 50C194.314 50 197 47.3137 197 44C197 40.6863 194.314 38 191 38C189.632 38 188.37 38.458 187.361 39.2292M187.361 39.2292C187.361 38.4861 187.361 37 187.361 37M187.361 39.2292L189.5 40" stroke="#FC0D56" stroke-width="1.5" stroke-linecap="round" stroke-linejoin="round"/>
<path d="M191.75 42C191.75 41.5858 191.414 41.25 191 41.25C190.586 41.25 190.25 41.5858 190.25 42H191.75ZM191 44H190.25C190.25 44.1989 190.329 44.3897 190.47 44.5303L191 44ZM191.97 46.0303C192.263 46.3232 192.737 46.3232 193.03 46.0303C193.323 45.7374 193.323 45.2626 193.03 44.9697L191.97 46.0303ZM190.25 42V44H191.75V42H190.25ZM190.47 44.5303L191.97 46.0303L193.03 44.9697L191.53 43.4697L190.47 44.5303Z" fill="#FC0D56"/>
<line x1="31" y1="66.5" x2="217" y2="66.5" stroke="#F0EEF3"/>
<circle cx="124" cy="135" r="14" fill="#04BF83" stroke="white" stroke-width="2"/>
<path fill-rule="evenodd" clip-rule="evenodd" d="M157.564 165.123C158.721 166.309 158.698 168.208 157.511 169.365C148.864 177.799 137.036 183 124 183C111.049 183 99.2915 177.867 90.6597 169.531C89.4678 168.38 89.4347 166.481 90.5856 165.289C91.7366 164.097 93.6358 164.064 94.8276 165.215C102.386 172.514 112.666 177 124 177C135.409 177 145.75 172.454 153.322 165.07C154.508 163.913 156.408 163.937 157.564 165.123Z" fill="url(#paint0_linear_3_781)" stroke="#E1E8E5"/>
<path fill-rule="evenodd" clip-rule="evenodd" d="M128.036 90.078C128.292 88.441 129.826 87.3212 131.463 87.5769C154.429 91.1639 172 111.027 172 135C172 143.031 170.025 150.611 166.532 157.27C165.762 158.737 163.949 159.302 162.481 158.532C161.014 157.763 160.449 155.949 161.218 154.482C164.271 148.662 166 142.037 166 135C166 114.029 150.628 96.6429 130.537 93.505C128.9 93.2493 127.78 91.715 128.036 90.078Z" fill="url(#paint1_linear_3_781)" stroke="#E1E8E5"/>
<path fill-rule="evenodd" clip-rule="evenodd" d="M115.91 90.6228C116.313 92.2297 115.338 93.8596 113.731 94.2633C95.4974 98.8442 82 115.349 82 135C82 142.117 83.7677 148.812 86.8855 154.679C87.663 156.142 87.1072 157.958 85.6441 158.736C84.181 159.513 82.3647 158.957 81.5872 157.494C78.0199 150.781 76 143.122 76 135C76 112.534 91.4315 93.6792 112.269 88.4442C113.876 88.0404 115.506 89.0158 115.91 90.6228Z" fill="url(#paint2_linear_3_781)" stroke="#E1E8E5"/>
<circle cx="113" cy="91" r="7" fill="#631AFD" stroke="white" stroke-width="2"/>
<circle cx="109" cy="178" r="7" fill="#FC0D56" stroke="white" stroke-width="2"/>
<circle cx="169" cy="138" r="7" fill="#2F80ED" stroke="white" stroke-width="2"/>
<circle cx="111" cy="213" r="12.5" fill="#1B1345" stroke="#F0EEF3" stroke-width="3"/>
<circle cx="153" cy="213" r="12.5" fill="#FC0D56" stroke="#FFF0F5" stroke-width="3"/>
<rect x="181" y="199" width="67" height="28" rx="14" fill="#631AFD"/>
<path d="M200.96 208.624V217H199.28V211.552L197.036 217H195.764L193.508 211.552V217H191.828V208.624H193.736L196.4 214.852L199.064 208.624H200.96ZM203.473 209.56C203.177 209.56 202.929 209.468 202.729 209.284C202.537 209.092 202.441 208.856 202.441 208.576C202.441 208.296 202.537 208.064 202.729 207.88C202.929 207.688 203.177 207.592 203.473 207.592C203.769 207.592 204.013 207.688 204.205 207.88C204.405 208.064 204.505 208.296 204.505 208.576C204.505 208.856 204.405 209.092 204.205 209.284C204.013 209.468 203.769 209.56 203.473 209.56ZM204.301 210.352V217H202.621V210.352H204.301ZM207.641 208.12V217H205.961V208.12H207.641ZM210.981 208.12V217H209.301V208.12H210.981ZM213.493 209.56C213.197 209.56 212.949 209.468 212.749 209.284C212.557 209.092 212.461 208.856 212.461 208.576C212.461 208.296 212.557 208.064 212.749 207.88C212.949 207.688 213.197 207.592 213.493 207.592C213.789 207.592 214.033 207.688 214.225 207.88C214.425 208.064 214.525 208.296 214.525 208.576C214.525 208.856 214.425 209.092 214.225 209.284C214.033 209.468 213.789 209.56 213.493 209.56ZM214.321 210.352V217H212.641V210.352H214.321ZM218.932 217.108C218.292 217.108 217.716 216.968 217.204 216.688C216.692 216.4 216.288 215.996 215.992 215.476C215.704 214.956 215.56 214.356 215.56 213.676C215.56 212.996 215.708 212.396 216.004 211.876C216.308 211.356 216.72 210.956 217.24 210.676C217.76 210.388 218.34 210.244 218.98 210.244C219.62 210.244 220.2 210.388 220.72 210.676C221.24 210.956 221.648 211.356 221.944 211.876C222.248 212.396 222.4 212.996 222.4 213.676C222.4 214.356 222.244 214.956 221.932 215.476C221.628 215.996 221.212 216.4 220.684 216.688C220.164 216.968 219.58 217.108 218.932 217.108ZM218.932 215.644C219.236 215.644 219.52 215.572 219.784 215.428C220.056 215.276 220.272 215.052 220.432 214.756C220.592 214.46 220.672 214.1 220.672 213.676C220.672 213.044 220.504 212.56 220.168 212.224C219.84 211.88 219.436 211.708 218.956 211.708C218.476 211.708 218.072 211.88 217.744 212.224C217.424 212.56 217.264 213.044 217.264 213.676C217.264 214.308 217.42 214.796 217.732 215.14C218.052 215.476 218.452 215.644 218.932 215.644ZM227.317 210.256C228.109 210.256 228.749 210.508 229.237 211.012C229.725 211.508 229.969 212.204 229.969 213.1V217H228.289V213.328C228.289 212.8 228.157 212.396 227.893 212.116C227.629 211.828 227.269 211.684 226.813 211.684C226.349 211.684 225.981 211.828 225.709 212.116C225.445 212.396 225.313 212.8 225.313 213.328V217H223.633V210.352H225.313V211.18C225.537 210.892 225.821 210.668 226.165 210.508C226.517 210.34 226.901 210.256 227.317 210.256ZM234.11 217.108C233.566 217.108 233.078 217.012 232.646 216.82C232.214 216.62 231.87 216.352 231.614 216.016C231.366 215.68 231.23 215.308 231.206 214.9H232.898C232.93 215.156 233.054 215.368 233.27 215.536C233.494 215.704 233.77 215.788 234.098 215.788C234.418 215.788 234.666 215.724 234.842 215.596C235.026 215.468 235.118 215.304 235.118 215.104C235.118 214.888 235.006 214.728 234.782 214.624C234.566 214.512 234.218 214.392 233.738 214.264C233.242 214.144 232.834 214.02 232.514 213.892C232.202 213.764 231.93 213.568 231.698 213.304C231.474 213.04 231.362 212.684 231.362 212.236C231.362 211.868 231.466 211.532 231.674 211.228C231.89 210.924 232.194 210.684 232.586 210.508C232.986 210.332 233.454 210.244 233.99 210.244C234.782 210.244 235.414 210.444 235.886 210.844C236.358 211.236 236.618 211.768 236.666 212.44H235.058C235.034 212.176 234.922 211.968 234.722 211.816C234.53 211.656 234.27 211.576 233.942 211.576C233.638 211.576 233.402 211.632 233.234 211.744C233.074 211.856 232.994 212.012 232.994 212.212C232.994 212.436 233.106 212.608 233.33 212.728C233.554 212.84 233.902 212.956 234.374 213.076C234.854 213.196 235.25 213.32 235.562 213.448C235.874 213.576 236.142 213.776 236.366 214.048C236.598 214.312 236.718 214.664 236.726 215.104C236.726 215.488 236.618 215.832 236.402 216.136C236.194 216.44 235.89 216.68 235.49 216.856C235.098 217.024 234.638 217.108 234.11 217.108Z" fill="white"/>
<circle cx="69" cy="213" r="13" fill="white" stroke="#F0EEF3" stroke-width="2"/>
<rect x="64" y="205" width="10" height="16" rx="2" stroke="#1B1345"/>
<path d="M68 218.5C67.7239 218.5 67.5 218.724 67.5 219C67.5 219.276 67.7239 219.5 68 219.5V218.5ZM70 219.5C70.2761 219.5 70.5 219.276 70.5 219C70.5 218.724 70.2761 218.5 70 218.5V219.5ZM68 219.5H70V218.5H68V219.5Z" fill="#1B1345"/>
<path d="M68 206.5H70V205.5H68V206.5ZM70 206.5C70.8284 206.5 71.5 205.828 71.5 205H70.5C70.5 205.276 70.2761 205.5 70 205.5V206.5ZM68 205.5C67.7239 205.5 67.5 205.276 67.5 205H66.5C66.5 205.828 67.1716 206.5 68 206.5V205.5Z" fill="#1B1345"/>
<defs>
<linearGradient id="paint0_linear_3_781" x1="90" y1="165.5" x2="157" y2="166.5" gradientUnits="userSpaceOnUse">
<stop stop-color="#FC0D56"/>
<stop offset="1" stop-color="#631AFD"/>
</linearGradient>
<linearGradient id="paint1_linear_3_781" x1="128" y1="90" x2="162.5" y2="157.5" gradientUnits="userSpaceOnUse">
<stop stop-color="#F5DD00"/>
<stop offset="1" stop-color="#631AFD"/>
<stop offset="1" stop-color="#06C081"/>
</linearGradient>
<linearGradient id="paint2_linear_3_781" x1="96.0004" y1="88.353" x2="84.5" y2="157.5" gradientUnits="userSpaceOnUse">
<stop stop-color="#FFD521"/>
<stop offset="1" stop-color="#F90E5B"/>
</linearGradient>
</defs>
</svg>
