<svg width="248" height="248" viewBox="0 0 248 248" fill="none" xmlns="http://www.w3.org/2000/svg">
<circle cx="124" cy="124" r="124" fill="#F3EEFF"/>
<mask id="mask0_3_749" style="mask-type:alpha" maskUnits="userSpaceOnUse" x="0" y="0" width="248" height="248">
<path d="M248 124C248 192.483 192.483 248 124 248C55.5167 248 0 192.483 0 124C0 55.5167 3 0 124 0C248 0 248 55.5167 248 124Z" fill="#EBF3F1"/>
</mask>
<g mask="url(#mask0_3_749)">
<path d="M29 37C29 27.0589 37.0589 19 47 19H201C210.941 19 219 27.0589 219 37V254H29V37Z" fill="white" stroke="#F0EEF3" stroke-width="4"/>
<path d="M51.94 132.58H49.03L48.53 134H47.34L49.83 127.04H51.15L53.64 134H52.44L51.94 132.58ZM51.62 131.65L50.49 128.42L49.35 131.65H51.62ZM55.8627 129.3C56.056 129.047 56.3193 128.833 56.6527 128.66C56.986 128.487 57.3627 128.4 57.7827 128.4C58.2627 128.4 58.6993 128.52 59.0927 128.76C59.4927 128.993 59.806 129.323 60.0327 129.75C60.2593 130.177 60.3727 130.667 60.3727 131.22C60.3727 131.773 60.2593 132.27 60.0327 132.71C59.806 133.143 59.4927 133.483 59.0927 133.73C58.6993 133.97 58.2627 134.09 57.7827 134.09C57.3627 134.09 56.9893 134.007 56.6627 133.84C56.336 133.667 56.0693 133.453 55.8627 133.2V136.62H54.7227V128.49H55.8627V129.3ZM59.2127 131.22C59.2127 130.84 59.1327 130.513 58.9727 130.24C58.8193 129.96 58.6127 129.75 58.3527 129.61C58.0993 129.463 57.826 129.39 57.5327 129.39C57.246 129.39 56.9727 129.463 56.7127 129.61C56.4593 129.757 56.2527 129.97 56.0927 130.25C55.9393 130.53 55.8627 130.86 55.8627 131.24C55.8627 131.62 55.9393 131.953 56.0927 132.24C56.2527 132.52 56.4593 132.733 56.7127 132.88C56.9727 133.027 57.246 133.1 57.5327 133.1C57.826 133.1 58.0993 133.027 58.3527 132.88C58.6127 132.727 58.8193 132.507 58.9727 132.22C59.1327 131.933 59.2127 131.6 59.2127 131.22ZM62.64 129.3C62.8333 129.047 63.0967 128.833 63.43 128.66C63.7633 128.487 64.14 128.4 64.56 128.4C65.04 128.4 65.4767 128.52 65.87 128.76C66.27 128.993 66.5833 129.323 66.81 129.75C67.0367 130.177 67.15 130.667 67.15 131.22C67.15 131.773 67.0367 132.27 66.81 132.71C66.5833 133.143 66.27 133.483 65.87 133.73C65.4767 133.97 65.04 134.09 64.56 134.09C64.14 134.09 63.7667 134.007 63.44 133.84C63.1133 133.667 62.8467 133.453 62.64 133.2V136.62H61.5V128.49H62.64V129.3ZM65.99 131.22C65.99 130.84 65.91 130.513 65.75 130.24C65.5967 129.96 65.39 129.75 65.13 129.61C64.8767 129.463 64.6033 129.39 64.31 129.39C64.0233 129.39 63.75 129.463 63.49 129.61C63.2367 129.757 63.03 129.97 62.87 130.25C62.7167 130.53 62.64 130.86 62.64 131.24C62.64 131.62 62.7167 131.953 62.87 132.24C63.03 132.52 63.2367 132.733 63.49 132.88C63.75 133.027 64.0233 133.1 64.31 133.1C64.6033 133.1 64.8767 133.027 65.13 132.88C65.39 132.727 65.5967 132.507 65.75 132.22C65.91 131.933 65.99 131.6 65.99 131.22ZM70.2773 134.09C69.844 134.09 69.454 134.013 69.1073 133.86C68.7673 133.7 68.4973 133.487 68.2973 133.22C68.0973 132.947 67.9907 132.643 67.9773 132.31H69.1573C69.1773 132.543 69.2873 132.74 69.4873 132.9C69.694 133.053 69.9507 133.13 70.2573 133.13C70.5773 133.13 70.824 133.07 70.9973 132.95C71.1773 132.823 71.2673 132.663 71.2673 132.47C71.2673 132.263 71.1673 132.11 70.9673 132.01C70.774 131.91 70.464 131.8 70.0373 131.68C69.624 131.567 69.2873 131.457 69.0273 131.35C68.7673 131.243 68.5407 131.08 68.3473 130.86C68.1607 130.64 68.0673 130.35 68.0673 129.99C68.0673 129.697 68.154 129.43 68.3273 129.19C68.5007 128.943 68.7473 128.75 69.0673 128.61C69.394 128.47 69.7673 128.4 70.1873 128.4C70.814 128.4 71.3173 128.56 71.6973 128.88C72.084 129.193 72.2907 129.623 72.3173 130.17H71.1773C71.1573 129.923 71.0573 129.727 70.8773 129.58C70.6973 129.433 70.454 129.36 70.1473 129.36C69.8473 129.36 69.6173 129.417 69.4573 129.53C69.2973 129.643 69.2173 129.793 69.2173 129.98C69.2173 130.127 69.2707 130.25 69.3773 130.35C69.484 130.45 69.614 130.53 69.7673 130.59C69.9207 130.643 70.1473 130.713 70.4473 130.8C70.8473 130.907 71.174 131.017 71.4273 131.13C71.6873 131.237 71.9107 131.397 72.0973 131.61C72.284 131.823 72.3807 132.107 72.3873 132.46C72.3873 132.773 72.3007 133.053 72.1273 133.3C71.954 133.547 71.7073 133.74 71.3873 133.88C71.074 134.02 70.704 134.09 70.2773 134.09Z" fill="#A8A5B8"/>
<circle cx="61" cy="163" r="14" fill="url(#paint0_linear_3_749)"/>
<path d="M64.6512 163.177C64.3641 163.473 63.9784 163.637 63.5713 163.637H61.8657C60.8286 163.637 59.9843 164.507 59.9843 165.576V167.335C59.9843 167.755 59.8257 168.152 59.5386 168.448C58.5187 169.5 56.7745 168.97 56.4702 167.52L55.0431 160.778C54.7603 159.439 55.9131 158.251 57.2116 158.542L63.7513 160.014C65.1612 160.327 65.6712 162.126 64.6512 163.177Z" fill="white"/>
<path d="M66.9571 165.223L65.53 158.481C65.2215 157.027 63.4816 156.501 62.4616 157.553C62.1745 157.849 62.0159 158.246 62.0159 158.666V159.152L63.8458 159.559C65.0715 159.833 65.8472 161.083 65.5815 162.342C65.4872 162.78 65.2772 163.182 64.9686 163.495C64.5958 163.875 64.0944 164.092 63.5716 164.092H61.8659C61.0731 164.092 60.4346 164.755 60.4346 165.572V166.478L64.7887 167.459C66.0829 167.75 67.24 166.562 66.9571 165.223Z" fill="white"/>
<circle cx="61" cy="200" r="14" fill="#F0EEF3"/>
<rect x="85" y="191" width="35" height="6" rx="1" fill="#F0EEF3"/>
<rect x="85" y="204" width="9" height="6" rx="1" fill="#F0EEF3"/>
<rect x="98" y="204" width="66" height="6" rx="1" fill="#F0EEF3"/>
<path d="M85.81 153.8C85.81 153.74 85.8267 153.69 85.86 153.65C85.9 153.603 85.9567 153.58 86.03 153.58H87.2C87.2533 153.58 87.3067 153.593 87.36 153.62C87.42 153.64 87.4633 153.677 87.49 153.73L90.78 158.46V153.73C90.8 153.67 90.83 153.63 90.87 153.61C90.9167 153.59 90.96 153.58 91 153.58H92.01C92.0633 153.58 92.1167 153.6 92.17 153.64C92.2233 153.68 92.25 153.733 92.25 153.8V160.78C92.25 160.927 92.17 161 92.01 161H91.02C90.94 161 90.88 160.987 90.84 160.96C90.8067 160.927 90.77 160.887 90.73 160.84L87.26 155.84V160.78C87.2667 160.927 87.1933 161 87.04 161H86.03C85.8833 161 85.81 160.927 85.81 160.78V153.8ZM93.9897 160.8V153.78C93.9897 153.647 94.053 153.58 94.1797 153.58H99.0697C99.203 153.58 99.2697 153.647 99.2697 153.78V154.75C99.2697 154.883 99.203 154.95 99.0697 154.95H95.4497V156.46H98.2097C98.3564 156.46 98.4297 156.527 98.4297 156.66V157.61C98.4297 157.743 98.3564 157.81 98.2097 157.81H95.4497V159.64H99.1597C99.2997 159.64 99.3697 159.707 99.3697 159.84V160.8C99.3697 160.933 99.2997 161 99.1597 161H94.1797C94.053 161 93.9897 160.933 93.9897 160.8ZM107.613 157.29C107.613 157.817 107.513 158.313 107.313 158.78C107.113 159.24 106.84 159.643 106.493 159.99C106.146 160.33 105.74 160.6 105.273 160.8C104.806 161 104.31 161.1 103.783 161.1C103.256 161.1 102.76 161 102.293 160.8C101.833 160.6 101.43 160.33 101.083 159.99C100.743 159.643 100.473 159.24 100.273 158.78C100.08 158.313 99.983 157.817 99.983 157.29C99.983 156.757 100.08 156.26 100.273 155.8C100.473 155.333 100.743 154.93 101.083 154.59C101.43 154.243 101.833 153.97 102.293 153.77C102.76 153.57 103.256 153.47 103.783 153.47C104.31 153.47 104.806 153.57 105.273 153.77C105.74 153.97 106.146 154.243 106.493 154.59C106.84 154.93 107.113 155.333 107.313 155.8C107.513 156.26 107.613 156.757 107.613 157.29ZM106.143 157.29C106.143 156.95 106.083 156.633 105.963 156.34C105.843 156.047 105.676 155.793 105.463 155.58C105.256 155.36 105.01 155.187 104.723 155.06C104.436 154.933 104.123 154.87 103.783 154.87C103.45 154.87 103.14 154.933 102.853 155.06C102.566 155.187 102.316 155.36 102.103 155.58C101.896 155.793 101.733 156.047 101.613 156.34C101.5 156.633 101.443 156.95 101.443 157.29C101.443 157.623 101.5 157.937 101.613 158.23C101.733 158.523 101.896 158.78 102.103 159C102.316 159.213 102.566 159.383 102.853 159.51C103.14 159.637 103.45 159.7 103.783 159.7C104.123 159.7 104.436 159.637 104.723 159.51C105.01 159.383 105.256 159.213 105.463 159C105.676 158.78 105.843 158.523 105.963 158.23C106.083 157.937 106.143 157.623 106.143 157.29ZM109.128 153.8C109.128 153.74 109.145 153.69 109.178 153.65C109.218 153.603 109.275 153.58 109.348 153.58H110.518C110.572 153.58 110.625 153.593 110.678 153.62C110.738 153.64 110.782 153.677 110.808 153.73L114.098 158.46V153.73C114.118 153.67 114.148 153.63 114.188 153.61C114.235 153.59 114.278 153.58 114.318 153.58H115.328C115.382 153.58 115.435 153.6 115.488 153.64C115.542 153.68 115.568 153.733 115.568 153.8V160.78C115.568 160.927 115.488 161 115.328 161H114.338C114.258 161 114.198 160.987 114.158 160.96C114.125 160.927 114.088 160.887 114.048 160.84L110.578 155.84V160.78C110.585 160.927 110.512 161 110.358 161H109.348C109.202 161 109.128 160.927 109.128 160.78V153.8Z" fill="#1B1345"/>
<path d="M85.984 173.76C86.496 173.317 86.8987 172.955 87.192 172.672C87.4907 172.384 87.7387 172.085 87.936 171.776C88.1333 171.467 88.232 171.157 88.232 170.848C88.232 170.528 88.1547 170.277 88 170.096C87.8507 169.915 87.6133 169.824 87.288 169.824C86.9733 169.824 86.728 169.925 86.552 170.128C86.3813 170.325 86.2907 170.592 86.28 170.928H85.4C85.416 170.32 85.5973 169.856 85.944 169.536C86.296 169.211 86.7413 169.048 87.28 169.048C87.8613 169.048 88.3147 169.208 88.64 169.528C88.9707 169.848 89.136 170.275 89.136 170.808C89.136 171.192 89.0373 171.563 88.84 171.92C88.648 172.272 88.416 172.589 88.144 172.872C87.8773 173.149 87.536 173.472 87.12 173.84L86.76 174.16H89.296V174.92H85.408V174.256L85.984 173.76ZM90.7852 175.056C90.6199 175.056 90.4812 175 90.3692 174.888C90.2572 174.776 90.2012 174.637 90.2012 174.472C90.2012 174.307 90.2572 174.168 90.3692 174.056C90.4812 173.944 90.6199 173.888 90.7852 173.888C90.9452 173.888 91.0812 173.944 91.1932 174.056C91.3052 174.168 91.3612 174.307 91.3612 174.472C91.3612 174.637 91.3052 174.776 91.1932 174.888C91.0812 175 90.9452 175.056 90.7852 175.056ZM92.4269 172.008C92.4269 171.085 92.5815 170.365 92.8909 169.848C93.2055 169.325 93.7442 169.064 94.5069 169.064C95.2695 169.064 95.8055 169.325 96.1149 169.848C96.4295 170.365 96.5869 171.085 96.5869 172.008C96.5869 172.941 96.4295 173.672 96.1149 174.2C95.8055 174.723 95.2695 174.984 94.5069 174.984C93.7442 174.984 93.2055 174.723 92.8909 174.2C92.5815 173.672 92.4269 172.941 92.4269 172.008ZM95.6909 172.008C95.6909 171.576 95.6615 171.211 95.6029 170.912C95.5495 170.613 95.4375 170.371 95.2669 170.184C95.0962 169.992 94.8429 169.896 94.5069 169.896C94.1709 169.896 93.9175 169.992 93.7469 170.184C93.5762 170.371 93.4615 170.613 93.4029 170.912C93.3495 171.211 93.3229 171.576 93.3229 172.008C93.3229 172.456 93.3495 172.832 93.4029 173.136C93.4562 173.44 93.5682 173.685 93.7389 173.872C93.9149 174.059 94.1709 174.152 94.5069 174.152C94.8429 174.152 95.0962 174.059 95.2669 173.872C95.4429 173.685 95.5575 173.44 95.6109 173.136C95.6642 172.832 95.6909 172.456 95.6909 172.008ZM103.728 169.44V175H102.816V171.192L101.12 175H100.488L98.7839 171.192V175H97.8719V169.44H98.8559L100.808 173.8L102.752 169.44H103.728ZM108.103 172.144C108.401 172.197 108.655 172.355 108.863 172.616C109.071 172.877 109.175 173.173 109.175 173.504C109.175 173.787 109.1 174.043 108.951 174.272C108.807 174.496 108.596 174.675 108.319 174.808C108.041 174.936 107.719 175 107.351 175H105.127V169.44H107.247C107.625 169.44 107.951 169.504 108.223 169.632C108.495 169.76 108.7 169.933 108.839 170.152C108.977 170.365 109.047 170.605 109.047 170.872C109.047 171.192 108.961 171.459 108.791 171.672C108.62 171.885 108.391 172.043 108.103 172.144ZM106.039 171.776H107.167C107.465 171.776 107.697 171.709 107.863 171.576C108.033 171.437 108.119 171.24 108.119 170.984C108.119 170.733 108.033 170.539 107.863 170.4C107.697 170.256 107.465 170.184 107.167 170.184H106.039V171.776ZM107.271 174.256C107.58 174.256 107.823 174.181 107.999 174.032C108.175 173.883 108.263 173.675 108.263 173.408C108.263 173.136 108.169 172.92 107.983 172.76C107.796 172.6 107.548 172.52 107.239 172.52H106.039V174.256H107.271Z" fill="#A8A5B8"/>
<path d="M191 132C191 130.343 192.343 129 194 129H198C199.657 129 201 130.343 201 132C201 133.657 199.657 135 198 135H194C192.343 135 191 133.657 191 132Z" fill="#F0EEF3"/>
</g>
<path d="M50.72 48.084C50.136 48.084 49.608 47.984 49.136 47.784C48.672 47.584 48.304 47.296 48.032 46.92C47.76 46.544 47.62 46.1 47.612 45.588H49.412C49.436 45.932 49.556 46.204 49.772 46.404C49.996 46.604 50.3 46.704 50.684 46.704C51.076 46.704 51.384 46.612 51.608 46.428C51.832 46.236 51.944 45.988 51.944 45.684C51.944 45.436 51.868 45.232 51.716 45.072C51.564 44.912 51.372 44.788 51.14 44.7C50.916 44.604 50.604 44.5 50.204 44.388C49.66 44.228 49.216 44.072 48.872 43.92C48.536 43.76 48.244 43.524 47.996 43.212C47.756 42.892 47.636 42.468 47.636 41.94C47.636 41.444 47.76 41.012 48.008 40.644C48.256 40.276 48.604 39.996 49.052 39.804C49.5 39.604 50.012 39.504 50.588 39.504C51.452 39.504 52.152 39.716 52.688 40.14C53.232 40.556 53.532 41.14 53.588 41.892H51.74C51.724 41.604 51.6 41.368 51.368 41.184C51.144 40.992 50.844 40.896 50.468 40.896C50.14 40.896 49.876 40.98 49.676 41.148C49.484 41.316 49.388 41.56 49.388 41.88C49.388 42.104 49.46 42.292 49.604 42.444C49.756 42.588 49.94 42.708 50.156 42.804C50.38 42.892 50.692 42.996 51.092 43.116C51.636 43.276 52.08 43.436 52.424 43.596C52.768 43.756 53.064 43.996 53.312 44.316C53.56 44.636 53.684 45.056 53.684 45.576C53.684 46.024 53.568 46.44 53.336 46.824C53.104 47.208 52.764 47.516 52.316 47.748C51.868 47.972 51.336 48.084 50.72 48.084ZM57.0965 42.732V45.948C57.0965 46.172 57.1485 46.336 57.2525 46.44C57.3645 46.536 57.5485 46.584 57.8045 46.584H58.5845V48H57.5285C56.1125 48 55.4045 47.312 55.4045 45.936V42.732H54.6125V41.352H55.4045V39.708H57.0965V41.352H58.5845V42.732H57.0965ZM62.7448 48.108C62.1048 48.108 61.5288 47.968 61.0168 47.688C60.5048 47.4 60.1008 46.996 59.8048 46.476C59.5168 45.956 59.3728 45.356 59.3728 44.676C59.3728 43.996 59.5208 43.396 59.8168 42.876C60.1208 42.356 60.5328 41.956 61.0528 41.676C61.5728 41.388 62.1528 41.244 62.7928 41.244C63.4328 41.244 64.0128 41.388 64.5328 41.676C65.0528 41.956 65.4608 42.356 65.7568 42.876C66.0608 43.396 66.2128 43.996 66.2128 44.676C66.2128 45.356 66.0568 45.956 65.7448 46.476C65.4408 46.996 65.0248 47.4 64.4968 47.688C63.9768 47.968 63.3928 48.108 62.7448 48.108ZM62.7448 46.644C63.0488 46.644 63.3328 46.572 63.5968 46.428C63.8688 46.276 64.0848 46.052 64.2448 45.756C64.4048 45.46 64.4848 45.1 64.4848 44.676C64.4848 44.044 64.3168 43.56 63.9808 43.224C63.6528 42.88 63.2488 42.708 62.7688 42.708C62.2888 42.708 61.8848 42.88 61.5568 43.224C61.2368 43.56 61.0768 44.044 61.0768 44.676C61.0768 45.308 61.2328 45.796 61.5448 46.14C61.8648 46.476 62.2648 46.644 62.7448 46.644ZM69.1252 42.384C69.3412 42.032 69.6212 41.756 69.9652 41.556C70.3172 41.356 70.7172 41.256 71.1652 41.256V43.02H70.7212C70.1932 43.02 69.7932 43.144 69.5212 43.392C69.2572 43.64 69.1252 44.072 69.1252 44.688V48H67.4452V41.352H69.1252V42.384ZM71.8647 44.652C71.8647 43.98 71.9967 43.384 72.2607 42.864C72.5328 42.344 72.8968 41.944 73.3528 41.664C73.8168 41.384 74.3328 41.244 74.9008 41.244C75.3968 41.244 75.8288 41.344 76.1968 41.544C76.5728 41.744 76.8728 41.996 77.0968 42.3V41.352H78.7888V48H77.0968V47.028C76.8808 47.34 76.5808 47.6 76.1968 47.808C75.8208 48.008 75.3848 48.108 74.8888 48.108C74.3288 48.108 73.8168 47.964 73.3528 47.676C72.8968 47.388 72.5328 46.984 72.2607 46.464C71.9967 45.936 71.8647 45.332 71.8647 44.652ZM77.0968 44.676C77.0968 44.268 77.0168 43.92 76.8568 43.632C76.6968 43.336 76.4808 43.112 76.2088 42.96C75.9368 42.8 75.6448 42.72 75.3328 42.72C75.0208 42.72 74.7328 42.796 74.4688 42.948C74.2048 43.1 73.9888 43.324 73.8208 43.62C73.6608 43.908 73.5808 44.252 73.5808 44.652C73.5808 45.052 73.6608 45.404 73.8208 45.708C73.9888 46.004 74.2048 46.232 74.4688 46.392C74.7408 46.552 75.0288 46.632 75.3328 46.632C75.6448 46.632 75.9368 46.556 76.2088 46.404C76.4808 46.244 76.6968 46.02 76.8568 45.732C77.0168 45.436 77.0968 45.084 77.0968 44.676ZM83.0336 41.244C83.5296 41.244 83.9656 41.344 84.3416 41.544C84.7176 41.736 85.0136 41.988 85.2296 42.3V41.352H86.9216V48.048C86.9216 48.664 86.7976 49.212 86.5496 49.692C86.3016 50.18 85.9296 50.564 85.4336 50.844C84.9376 51.132 84.3376 51.276 83.6336 51.276C82.6896 51.276 81.9136 51.056 81.3056 50.616C80.7056 50.176 80.3656 49.576 80.2856 48.816H81.9536C82.0416 49.12 82.2296 49.36 82.5176 49.536C82.8136 49.72 83.1696 49.812 83.5856 49.812C84.0736 49.812 84.4696 49.664 84.7736 49.368C85.0776 49.08 85.2296 48.64 85.2296 48.048V47.016C85.0136 47.328 84.7136 47.588 84.3296 47.796C83.9536 48.004 83.5216 48.108 83.0336 48.108C82.4736 48.108 81.9616 47.964 81.4976 47.676C81.0336 47.388 80.6656 46.984 80.3936 46.464C80.1296 45.936 79.9976 45.332 79.9976 44.652C79.9976 43.98 80.1296 43.384 80.3936 42.864C80.6656 42.344 81.0296 41.944 81.4856 41.664C81.9496 41.384 82.4656 41.244 83.0336 41.244ZM85.2296 44.676C85.2296 44.268 85.1496 43.92 84.9896 43.632C84.8296 43.336 84.6136 43.112 84.3416 42.96C84.0696 42.8 83.7776 42.72 83.4656 42.72C83.1536 42.72 82.8656 42.796 82.6016 42.948C82.3376 43.1 82.1216 43.324 81.9536 43.62C81.7936 43.908 81.7136 44.252 81.7136 44.652C81.7136 45.052 81.7936 45.404 81.9536 45.708C82.1216 46.004 82.3376 46.232 82.6016 46.392C82.8736 46.552 83.1616 46.632 83.4656 46.632C83.7776 46.632 84.0696 46.556 84.3416 46.404C84.6136 46.244 84.8296 46.02 84.9896 45.732C85.1496 45.436 85.2296 45.084 85.2296 44.676ZM94.7424 44.532C94.7424 44.772 94.7264 44.988 94.6944 45.18H89.8344C89.8744 45.66 90.0424 46.036 90.3384 46.308C90.6344 46.58 90.9984 46.716 91.4304 46.716C92.0544 46.716 92.4984 46.448 92.7624 45.912H94.5744C94.3824 46.552 94.0144 47.08 93.4704 47.496C92.9264 47.904 92.2584 48.108 91.4664 48.108C90.8264 48.108 90.2504 47.968 89.7384 47.688C89.2344 47.4 88.8384 46.996 88.5504 46.476C88.2704 45.956 88.1304 45.356 88.1304 44.676C88.1304 43.988 88.2704 43.384 88.5504 42.864C88.8304 42.344 89.2224 41.944 89.7264 41.664C90.2304 41.384 90.8104 41.244 91.4664 41.244C92.0984 41.244 92.6624 41.38 93.1584 41.652C93.6624 41.924 94.0504 42.312 94.3224 42.816C94.6024 43.312 94.7424 43.884 94.7424 44.532ZM93.0024 44.052C92.9944 43.62 92.8384 43.276 92.5344 43.02C92.2304 42.756 91.8584 42.624 91.4184 42.624C91.0024 42.624 90.6504 42.752 90.3624 43.008C90.0824 43.256 89.9104 43.604 89.8464 44.052H93.0024Z" fill="#1B1345"/>
<path fill-rule="evenodd" clip-rule="evenodd" d="M197.605 40.7174L197.138 39.9073C196.743 39.2219 195.868 38.9854 195.182 39.3787V39.3787C194.855 39.5712 194.465 39.6258 194.098 39.5305C193.731 39.4352 193.417 39.1978 193.225 38.8707C193.102 38.6628 193.035 38.426 193.033 38.1842V38.1842C193.044 37.7966 192.898 37.421 192.628 37.1429C192.357 36.8649 191.986 36.7081 191.598 36.7083H190.658C190.278 36.7082 189.913 36.8596 189.645 37.1289C189.378 37.3982 189.228 37.7631 189.23 38.143V38.143C189.218 38.9274 188.579 39.5573 187.795 39.5572C187.553 39.5547 187.316 39.4884 187.108 39.365V39.365C186.422 38.9717 185.547 39.2082 185.152 39.8936L184.651 40.7174C184.256 41.402 184.49 42.2766 185.172 42.6739V42.6739C185.616 42.9302 185.89 43.4039 185.89 43.9165C185.89 44.4291 185.616 44.9028 185.172 45.1591V45.1591C184.49 45.5536 184.257 46.4262 184.651 47.1087V47.1087L185.124 47.9256C185.309 48.2595 185.62 48.5059 185.987 48.6103C186.354 48.7146 186.748 48.6684 187.081 48.4817V48.4817C187.408 48.2907 187.798 48.2384 188.165 48.3363C188.531 48.4343 188.842 48.6745 189.031 49.0034C189.154 49.2114 189.22 49.4482 189.223 49.6899V49.6899C189.223 50.4824 189.865 51.1247 190.658 51.1247H191.598C192.388 51.1247 193.029 50.4865 193.033 49.6968V49.6968C193.031 49.3157 193.182 48.9497 193.451 48.6802C193.721 48.4108 194.087 48.2602 194.468 48.262C194.709 48.2685 194.945 48.3345 195.154 48.4542V48.4542C195.839 48.8487 196.713 48.6155 197.111 47.9325V47.9325L197.605 47.1087C197.796 46.7803 197.849 46.3892 197.751 46.022C197.653 45.6547 197.413 45.3417 197.083 45.1522V45.1522C196.754 44.9627 196.514 44.6496 196.416 44.2824C196.318 43.9152 196.37 43.5241 196.562 43.1957C196.686 42.9784 196.866 42.7983 197.083 42.6739V42.6739C197.762 42.2769 197.995 41.4073 197.605 40.7243V40.7243V40.7174Z" stroke="#631AFD" stroke-width="1.5" stroke-linecap="round" stroke-linejoin="round"/>
<circle cx="191.131" cy="43.9163" r="1.97712" stroke="#631AFD" stroke-width="1.5" stroke-linecap="round" stroke-linejoin="round"/>
<line x1="31" y1="66.5" x2="217" y2="66.5" stroke="#F0EEF3"/>
<line x1="31" y1="112.5" x2="217" y2="112.5" stroke="#F0EEF3"/>
<path d="M51.94 86.58H49.03L48.53 88H47.34L49.83 81.04H51.15L53.64 88H52.44L51.94 86.58ZM51.62 85.65L50.49 82.42L49.35 85.65H51.62ZM56.8527 86.98L58.4127 82.49H59.6227L57.5227 88H56.1627L54.0727 82.49H55.2927L56.8527 86.98ZM60.1044 85.22C60.1044 84.6667 60.2177 84.1767 60.4444 83.75C60.6777 83.3233 60.991 82.9933 61.3844 82.76C61.7844 82.52 62.2244 82.4 62.7044 82.4C63.1377 82.4 63.5144 82.4867 63.8344 82.66C64.161 82.8267 64.421 83.0367 64.6144 83.29V82.49H65.7644V88H64.6144V87.18C64.421 87.44 64.1577 87.6567 63.8244 87.83C63.491 88.0033 63.111 88.09 62.6844 88.09C62.211 88.09 61.7777 87.97 61.3844 87.73C60.991 87.4833 60.6777 87.1433 60.4444 86.71C60.2177 86.27 60.1044 85.7733 60.1044 85.22ZM64.6144 85.24C64.6144 84.86 64.5344 84.53 64.3744 84.25C64.221 83.97 64.0177 83.7567 63.7644 83.61C63.511 83.4633 63.2377 83.39 62.9444 83.39C62.651 83.39 62.3777 83.4633 62.1244 83.61C61.871 83.75 61.6644 83.96 61.5044 84.24C61.351 84.5133 61.2744 84.84 61.2744 85.22C61.2744 85.6 61.351 85.9333 61.5044 86.22C61.6644 86.5067 61.871 86.7267 62.1244 86.88C62.3844 87.0267 62.6577 87.1 62.9444 87.1C63.2377 87.1 63.511 87.0267 63.7644 86.88C64.0177 86.7333 64.221 86.52 64.3744 86.24C64.5344 85.9533 64.6144 85.62 64.6144 85.24ZM67.8417 81.76C67.6351 81.76 67.4617 81.69 67.3217 81.55C67.1817 81.41 67.1117 81.2367 67.1117 81.03C67.1117 80.8233 67.1817 80.65 67.3217 80.51C67.4617 80.37 67.6351 80.3 67.8417 80.3C68.0417 80.3 68.2117 80.37 68.3517 80.51C68.4917 80.65 68.5617 80.8233 68.5617 81.03C68.5617 81.2367 68.4917 81.41 68.3517 81.55C68.2117 81.69 68.0417 81.76 67.8417 81.76ZM68.4017 82.49V88H67.2617V82.49H68.4017ZM71.0384 80.6V88H69.8984V80.6H71.0384ZM72.1552 85.22C72.1552 84.6667 72.2685 84.1767 72.4952 83.75C72.7285 83.3233 73.0418 82.9933 73.4352 82.76C73.8352 82.52 74.2752 82.4 74.7552 82.4C75.1885 82.4 75.5652 82.4867 75.8852 82.66C76.2118 82.8267 76.4718 83.0367 76.6652 83.29V82.49H77.8152V88H76.6652V87.18C76.4718 87.44 76.2085 87.6567 75.8752 87.83C75.5418 88.0033 75.1618 88.09 74.7352 88.09C74.2618 88.09 73.8285 87.97 73.4352 87.73C73.0418 87.4833 72.7285 87.1433 72.4952 86.71C72.2685 86.27 72.1552 85.7733 72.1552 85.22ZM76.6652 85.24C76.6652 84.86 76.5852 84.53 76.4252 84.25C76.2718 83.97 76.0685 83.7567 75.8152 83.61C75.5618 83.4633 75.2885 83.39 74.9952 83.39C74.7018 83.39 74.4285 83.4633 74.1752 83.61C73.9218 83.75 73.7152 83.96 73.5552 84.24C73.4018 84.5133 73.3252 84.84 73.3252 85.22C73.3252 85.6 73.4018 85.9333 73.5552 86.22C73.7152 86.5067 73.9218 86.7267 74.1752 86.88C74.4352 87.0267 74.7085 87.1 74.9952 87.1C75.2885 87.1 75.5618 87.0267 75.8152 86.88C76.0685 86.7333 76.2718 86.52 76.4252 86.24C76.5852 85.9533 76.6652 85.62 76.6652 85.24ZM80.4525 83.31C80.6458 83.0433 80.9092 82.8267 81.2425 82.66C81.5825 82.4867 81.9592 82.4 82.3725 82.4C82.8592 82.4 83.2992 82.5167 83.6925 82.75C84.0858 82.9833 84.3958 83.3167 84.6225 83.75C84.8492 84.1767 84.9625 84.6667 84.9625 85.22C84.9625 85.7733 84.8492 86.27 84.6225 86.71C84.3958 87.1433 84.0825 87.4833 83.6825 87.73C83.2892 87.97 82.8525 88.09 82.3725 88.09C81.9458 88.09 81.5658 88.0067 81.2325 87.84C80.9058 87.6733 80.6458 87.46 80.4525 87.2V88H79.3125V80.6H80.4525V83.31ZM83.8025 85.22C83.8025 84.84 83.7225 84.5133 83.5625 84.24C83.4092 83.96 83.2025 83.75 82.9425 83.61C82.6892 83.4633 82.4158 83.39 82.1225 83.39C81.8358 83.39 81.5625 83.4633 81.3025 83.61C81.0492 83.7567 80.8425 83.97 80.6825 84.25C80.5292 84.53 80.4525 84.86 80.4525 85.24C80.4525 85.62 80.5292 85.9533 80.6825 86.24C80.8425 86.52 81.0492 86.7333 81.3025 86.88C81.5625 87.0267 81.8358 87.1 82.1225 87.1C82.4158 87.1 82.6892 87.0267 82.9425 86.88C83.2025 86.7267 83.4092 86.5067 83.5625 86.22C83.7225 85.9333 83.8025 85.6 83.8025 85.22ZM87.2298 80.6V88H86.0898V80.6H87.2298ZM93.7766 85.11C93.7766 85.3167 93.7632 85.5033 93.7366 85.67H89.5266C89.5599 86.11 89.7232 86.4633 90.0166 86.73C90.3099 86.9967 90.6699 87.13 91.0966 87.13C91.7099 87.13 92.1432 86.8733 92.3966 86.36H93.6266C93.4599 86.8667 93.1566 87.2833 92.7166 87.61C92.2832 87.93 91.7432 88.09 91.0966 88.09C90.5699 88.09 90.0966 87.9733 89.6766 87.74C89.2632 87.5 88.9366 87.1667 88.6966 86.74C88.4632 86.3067 88.3466 85.8067 88.3466 85.24C88.3466 84.6733 88.4599 84.1767 88.6866 83.75C88.9199 83.3167 89.2432 82.9833 89.6566 82.75C90.0766 82.5167 90.5566 82.4 91.0966 82.4C91.6166 82.4 92.0799 82.5133 92.4866 82.74C92.8932 82.9667 93.2099 83.2867 93.4366 83.7C93.6632 84.1067 93.7766 84.5767 93.7766 85.11ZM92.5866 84.75C92.5799 84.33 92.4299 83.9933 92.1366 83.74C91.8432 83.4867 91.4799 83.36 91.0466 83.36C90.6532 83.36 90.3166 83.4867 90.0366 83.74C89.7566 83.9867 89.5899 84.3233 89.5366 84.75H92.5866ZM95.3584 88.07C95.1518 88.07 94.9784 88 94.8384 87.86C94.6984 87.72 94.6284 87.5467 94.6284 87.34C94.6284 87.1333 94.6984 86.96 94.8384 86.82C94.9784 86.68 95.1518 86.61 95.3584 86.61C95.5584 86.61 95.7284 86.68 95.8684 86.82C96.0084 86.96 96.0784 87.1333 96.0784 87.34C96.0784 87.5467 96.0084 87.72 95.8684 87.86C95.7284 88 95.5584 88.07 95.3584 88.07ZM95.3584 83.87C95.1518 83.87 94.9784 83.8 94.8384 83.66C94.6984 83.52 94.6284 83.3467 94.6284 83.14C94.6284 82.9333 94.6984 82.76 94.8384 82.62C94.9784 82.48 95.1518 82.41 95.3584 82.41C95.5584 82.41 95.7284 82.48 95.8684 82.62C96.0084 82.76 96.0784 82.9333 96.0784 83.14C96.0784 83.3467 96.0084 83.52 95.8684 83.66C95.7284 83.8 95.5584 83.87 95.3584 83.87ZM99.6573 86.48V85.62L103.017 80.8H104.397V85.49H105.327V86.48H104.397V88H103.277V86.48H99.6573ZM103.327 81.96L100.967 85.49H103.327V81.96ZM106.882 88.07C106.675 88.07 106.502 88 106.362 87.86C106.222 87.72 106.152 87.5467 106.152 87.34C106.152 87.1333 106.222 86.96 106.362 86.82C106.502 86.68 106.675 86.61 106.882 86.61C107.082 86.61 107.252 86.68 107.392 86.82C107.532 86.96 107.602 87.1333 107.602 87.34C107.602 87.5467 107.532 87.72 107.392 87.86C107.252 88 107.082 88.07 106.882 88.07ZM113.384 81.69H110.034V83.68C110.174 83.4933 110.381 83.3367 110.654 83.21C110.934 83.0833 111.231 83.02 111.544 83.02C112.104 83.02 112.557 83.14 112.904 83.38C113.257 83.62 113.507 83.9233 113.654 84.29C113.807 84.6567 113.884 85.0433 113.884 85.45C113.884 85.9433 113.787 86.3833 113.594 86.77C113.407 87.15 113.124 87.45 112.744 87.67C112.371 87.89 111.911 88 111.364 88C110.637 88 110.054 87.82 109.614 87.46C109.174 87.1 108.911 86.6233 108.824 86.03H109.934C110.007 86.3433 110.171 86.5933 110.424 86.78C110.677 86.96 110.994 87.05 111.374 87.05C111.847 87.05 112.201 86.9067 112.434 86.62C112.674 86.3333 112.794 85.9533 112.794 85.48C112.794 85 112.674 84.6333 112.434 84.38C112.194 84.12 111.841 83.99 111.374 83.99C111.047 83.99 110.771 84.0733 110.544 84.24C110.324 84.4 110.164 84.62 110.064 84.9H108.984V80.69H113.384V81.69ZM115.071 84.26C115.071 83.1067 115.264 82.2067 115.651 81.56C116.044 80.9067 116.717 80.58 117.671 80.58C118.624 80.58 119.294 80.9067 119.681 81.56C120.074 82.2067 120.271 83.1067 120.271 84.26C120.271 85.4267 120.074 86.34 119.681 87C119.294 87.6533 118.624 87.98 117.671 87.98C116.717 87.98 116.044 87.6533 115.651 87C115.264 86.34 115.071 85.4267 115.071 84.26ZM119.151 84.26C119.151 83.72 119.114 83.2633 119.041 82.89C118.974 82.5167 118.834 82.2133 118.621 81.98C118.407 81.74 118.091 81.62 117.671 81.62C117.251 81.62 116.934 81.74 116.721 81.98C116.507 82.2133 116.364 82.5167 116.291 82.89C116.224 83.2633 116.191 83.72 116.191 84.26C116.191 84.82 116.224 85.29 116.291 85.67C116.357 86.05 116.497 86.3567 116.711 86.59C116.931 86.8233 117.251 86.94 117.671 86.94C118.091 86.94 118.407 86.8233 118.621 86.59C118.841 86.3567 118.984 86.05 119.051 85.67C119.117 85.29 119.151 84.82 119.151 84.26ZM128.947 81.05V88H127.807V83.24L125.687 88H124.897L122.767 83.24V88H121.627V81.05H122.857L125.297 86.5L127.727 81.05H128.947ZM134.165 84.43C134.539 84.4967 134.855 84.6933 135.115 85.02C135.375 85.3467 135.505 85.7167 135.505 86.13C135.505 86.4833 135.412 86.8033 135.225 87.09C135.045 87.37 134.782 87.5933 134.435 87.76C134.089 87.92 133.685 88 133.225 88H130.445V81.05H133.095C133.569 81.05 133.975 81.13 134.315 81.29C134.655 81.45 134.912 81.6667 135.085 81.94C135.259 82.2067 135.345 82.5067 135.345 82.84C135.345 83.24 135.239 83.5733 135.025 83.84C134.812 84.1067 134.525 84.3033 134.165 84.43ZM131.585 83.97H132.995C133.369 83.97 133.659 83.8867 133.865 83.72C134.079 83.5467 134.185 83.3 134.185 82.98C134.185 82.6667 134.079 82.4233 133.865 82.25C133.659 82.07 133.369 81.98 132.995 81.98H131.585V83.97ZM133.125 87.07C133.512 87.07 133.815 86.9767 134.035 86.79C134.255 86.6033 134.365 86.3433 134.365 86.01C134.365 85.67 134.249 85.4 134.015 85.2C133.782 85 133.472 84.9 133.085 84.9H131.585V87.07H133.125Z" fill="#A8A5B8"/>
<path d="M47 98C47 97.4477 47.4477 97 48 97H97V103H48C47.4477 103 47 102.552 47 102V98Z" fill="#631AFD"/>
<path d="M97 97H107V103H97V97Z" fill="#2F80ED"/>
<path d="M107 97H112V103H107V97Z" fill="#9B51E0"/>
<path d="M112 97H133V103H112V97Z" fill="#F5DD00"/>
<path d="M191 97H201V103H191V97Z" fill="#F0EEF3"/>
<path d="M133 97H191V103H133V97Z" fill="#EB5757"/>
<path d="M159 163C159 153.611 166.611 146 176 146H231C240.389 146 248 153.611 248 163C248 172.389 240.389 180 231 180H159V163Z" fill="#FC0D56"/>
<path d="M176.72 167.084C176.136 167.084 175.608 166.984 175.136 166.784C174.672 166.584 174.304 166.296 174.032 165.92C173.76 165.544 173.62 165.1 173.612 164.588H175.412C175.436 164.932 175.556 165.204 175.772 165.404C175.996 165.604 176.3 165.704 176.684 165.704C177.076 165.704 177.384 165.612 177.608 165.428C177.832 165.236 177.944 164.988 177.944 164.684C177.944 164.436 177.868 164.232 177.716 164.072C177.564 163.912 177.372 163.788 177.14 163.7C176.916 163.604 176.604 163.5 176.204 163.388C175.66 163.228 175.216 163.072 174.872 162.92C174.536 162.76 174.244 162.524 173.996 162.212C173.756 161.892 173.636 161.468 173.636 160.94C173.636 160.444 173.76 160.012 174.008 159.644C174.256 159.276 174.604 158.996 175.052 158.804C175.5 158.604 176.012 158.504 176.588 158.504C177.452 158.504 178.152 158.716 178.688 159.14C179.232 159.556 179.532 160.14 179.588 160.892H177.74C177.724 160.604 177.6 160.368 177.368 160.184C177.144 159.992 176.844 159.896 176.468 159.896C176.14 159.896 175.876 159.98 175.676 160.148C175.484 160.316 175.388 160.56 175.388 160.88C175.388 161.104 175.46 161.292 175.604 161.444C175.756 161.588 175.94 161.708 176.156 161.804C176.38 161.892 176.692 161.996 177.092 162.116C177.636 162.276 178.08 162.436 178.424 162.596C178.768 162.756 179.064 162.996 179.312 163.316C179.56 163.636 179.684 164.056 179.684 164.576C179.684 165.024 179.568 165.44 179.336 165.824C179.104 166.208 178.764 166.516 178.316 166.748C177.868 166.972 177.336 167.084 176.72 167.084ZM189.397 160.256C190.213 160.256 190.869 160.508 191.365 161.012C191.869 161.508 192.121 162.204 192.121 163.1V167H190.441V163.328C190.441 162.808 190.309 162.412 190.045 162.14C189.781 161.86 189.421 161.72 188.965 161.72C188.509 161.72 188.145 161.86 187.873 162.14C187.609 162.412 187.477 162.808 187.477 163.328V167H185.797V163.328C185.797 162.808 185.665 162.412 185.401 162.14C185.137 161.86 184.777 161.72 184.321 161.72C183.857 161.72 183.489 161.86 183.217 162.14C182.953 162.412 182.821 162.808 182.821 163.328V167H181.141V160.352H182.821V161.156C183.037 160.876 183.313 160.656 183.649 160.496C183.993 160.336 184.369 160.256 184.777 160.256C185.297 160.256 185.761 160.368 186.169 160.592C186.577 160.808 186.893 161.12 187.117 161.528C187.333 161.144 187.645 160.836 188.053 160.604C188.469 160.372 188.917 160.256 189.397 160.256ZM193.283 163.652C193.283 162.98 193.415 162.384 193.679 161.864C193.951 161.344 194.315 160.944 194.771 160.664C195.235 160.384 195.751 160.244 196.319 160.244C196.815 160.244 197.247 160.344 197.615 160.544C197.991 160.744 198.291 160.996 198.515 161.3V160.352H200.207V167H198.515V166.028C198.299 166.34 197.999 166.6 197.615 166.808C197.239 167.008 196.803 167.108 196.307 167.108C195.747 167.108 195.235 166.964 194.771 166.676C194.315 166.388 193.951 165.984 193.679 165.464C193.415 164.936 193.283 164.332 193.283 163.652ZM198.515 163.676C198.515 163.268 198.435 162.92 198.275 162.632C198.115 162.336 197.899 162.112 197.627 161.96C197.355 161.8 197.063 161.72 196.751 161.72C196.439 161.72 196.151 161.796 195.887 161.948C195.623 162.1 195.407 162.324 195.239 162.62C195.079 162.908 194.999 163.252 194.999 163.652C194.999 164.052 195.079 164.404 195.239 164.708C195.407 165.004 195.623 165.232 195.887 165.392C196.159 165.552 196.447 165.632 196.751 165.632C197.063 165.632 197.355 165.556 197.627 165.404C197.899 165.244 198.115 165.02 198.275 164.732C198.435 164.436 198.515 164.084 198.515 163.676ZM203.528 158.12V167H201.848V158.12H203.528ZM206.867 158.12V167H205.187V158.12H206.867ZM213.931 167.108C213.387 167.108 212.899 167.012 212.467 166.82C212.035 166.62 211.691 166.352 211.435 166.016C211.187 165.68 211.051 165.308 211.027 164.9H212.719C212.751 165.156 212.875 165.368 213.091 165.536C213.315 165.704 213.591 165.788 213.919 165.788C214.239 165.788 214.487 165.724 214.663 165.596C214.847 165.468 214.939 165.304 214.939 165.104C214.939 164.888 214.827 164.728 214.603 164.624C214.387 164.512 214.039 164.392 213.559 164.264C213.063 164.144 212.655 164.02 212.335 163.892C212.023 163.764 211.751 163.568 211.519 163.304C211.295 163.04 211.183 162.684 211.183 162.236C211.183 161.868 211.287 161.532 211.495 161.228C211.711 160.924 212.015 160.684 212.407 160.508C212.807 160.332 213.275 160.244 213.811 160.244C214.603 160.244 215.235 160.444 215.707 160.844C216.179 161.236 216.439 161.768 216.487 162.44H214.879C214.855 162.176 214.743 161.968 214.543 161.816C214.351 161.656 214.091 161.576 213.763 161.576C213.459 161.576 213.223 161.632 213.055 161.744C212.895 161.856 212.815 162.012 212.815 162.212C212.815 162.436 212.927 162.608 213.151 162.728C213.375 162.84 213.723 162.956 214.195 163.076C214.675 163.196 215.071 163.32 215.383 163.448C215.695 163.576 215.963 163.776 216.187 164.048C216.419 164.312 216.539 164.664 216.547 165.104C216.547 165.488 216.439 165.832 216.223 166.136C216.015 166.44 215.711 166.68 215.311 166.856C214.919 167.024 214.459 167.108 213.931 167.108ZM218.778 159.56C218.482 159.56 218.234 159.468 218.034 159.284C217.842 159.092 217.746 158.856 217.746 158.576C217.746 158.296 217.842 158.064 218.034 157.88C218.234 157.688 218.482 157.592 218.778 157.592C219.074 157.592 219.318 157.688 219.51 157.88C219.71 158.064 219.81 158.296 219.81 158.576C219.81 158.856 219.71 159.092 219.51 159.284C219.318 159.468 219.074 159.56 218.778 159.56ZM219.606 160.352V167H217.926V160.352H219.606ZM222.802 165.62H225.766V167H220.894V165.644L223.798 161.732H220.906V160.352H225.73V161.708L222.802 165.62ZM233.246 163.532C233.246 163.772 233.23 163.988 233.198 164.18H228.338C228.378 164.66 228.546 165.036 228.842 165.308C229.138 165.58 229.502 165.716 229.934 165.716C230.558 165.716 231.002 165.448 231.266 164.912H233.078C232.886 165.552 232.518 166.08 231.974 166.496C231.43 166.904 230.762 167.108 229.97 167.108C229.33 167.108 228.754 166.968 228.242 166.688C227.738 166.4 227.342 165.996 227.054 165.476C226.774 164.956 226.634 164.356 226.634 163.676C226.634 162.988 226.774 162.384 227.054 161.864C227.334 161.344 227.726 160.944 228.23 160.664C228.734 160.384 229.314 160.244 229.97 160.244C230.602 160.244 231.166 160.38 231.662 160.652C232.166 160.924 232.554 161.312 232.826 161.816C233.106 162.312 233.246 162.884 233.246 163.532ZM231.506 163.052C231.498 162.62 231.342 162.276 231.038 162.02C230.734 161.756 230.362 161.624 229.922 161.624C229.506 161.624 229.154 161.752 228.866 162.008C228.586 162.256 228.414 162.604 228.35 163.052H231.506Z" fill="white"/>
<defs>
<linearGradient id="paint0_linear_3_749" x1="47" y1="163" x2="75" y2="163" gradientUnits="userSpaceOnUse">
<stop stop-color="#FC0D56"/>
<stop offset="1" stop-color="#631AFD"/>
</linearGradient>
</defs>
</svg>
