<svg width="410" height="335" viewBox="0 0 410 335" fill="none" xmlns="http://www.w3.org/2000/svg">
<g clip-path="url(#clip0_3_404)">
<ellipse cx="174.5" cy="99.5" rx="225.5" ry="225.5" transform="rotate(-180 174.5 99.5)" fill="#F3EEFF"/>
<path d="M243.794 142.544C239.695 146.644 234.188 148.908 228.375 148.908H204.024C189.217 148.908 177.163 160.961 177.163 175.768V200.12C177.163 205.933 174.899 211.44 170.8 215.539C156.237 230.101 131.335 222.759 126.99 202.69L106.616 109.321C102.577 90.7812 119.036 74.3222 137.576 78.3605L230.945 98.7354C251.075 103.08 258.357 127.982 243.794 142.544Z" fill="#631AFD"/>
<path d="M276.713 170.873L256.338 77.5032C251.932 57.373 227.091 50.0919 212.529 64.6542C208.429 68.7536 206.165 74.2603 206.165 80.073V86.8034L232.292 92.4325C249.791 96.2261 260.865 113.542 257.072 130.98C255.726 137.037 252.728 142.605 248.322 146.949C242.999 152.211 235.84 155.209 228.376 155.209H204.024C192.704 155.209 183.588 164.387 183.588 175.707V188.25L245.752 201.833C264.231 205.871 280.751 189.412 276.713 170.873Z" fill="#FD0C56"/>
</g>
<defs>
<clipPath id="clip0_3_404">
<rect width="410" height="335" fill="white" transform="translate(410 335) rotate(-180)"/>
</clipPath>
</defs>
</svg>
