<svg width="240" height="76" viewBox="0 0 240 76" fill="none" xmlns="http://www.w3.org/2000/svg">
<rect width="240" height="76" rx="38" fill="#F3EEFF"/>
<path d="M102.169 23.598C102.169 18.6958 105.452 15.7783 109.577 15.7783C113.738 15.7783 117.021 18.6867 117.021 23.598V32.259C117.021 33.0364 116.409 33.6492 115.668 33.6492C114.891 33.6492 114.314 33.0364 114.314 32.259V23.5248C114.314 20.0768 112.22 18.2843 109.577 18.2843C106.97 18.2843 104.876 20.0768 104.876 23.5248V32.259C104.876 33.0364 104.263 33.6492 103.522 33.6492C102.745 33.6492 102.169 33.0364 102.169 32.259V23.598Z" fill="#1B1345"/>
<path d="M120.817 24.7505C120.817 19.7386 124.677 15.7876 129.753 15.7876C132.222 15.7876 134.289 16.7388 135.606 17.9551C135.908 18.2295 136.109 18.5954 136.109 19.0069C136.109 19.3453 136.009 19.6471 135.67 20.0221L129.643 27.229C129.369 27.5308 129.067 27.668 128.692 27.668C127.951 27.668 127.402 27.1649 127.402 26.4516C127.402 26.1498 127.466 25.8388 127.704 25.6102L132.981 19.3819C132.103 18.6411 130.85 18.3027 129.735 18.3027C126.287 18.3027 123.543 21.147 123.543 24.7687C123.543 28.3539 126.25 31.2348 129.735 31.2348C131.664 31.2348 133.182 30.3934 134.234 29.2045C134.609 28.8661 134.911 28.5917 135.387 28.5917C136.164 28.5917 136.74 29.1313 136.74 29.8812C136.74 30.1556 136.566 30.5214 136.338 30.7958C134.92 32.4878 132.579 33.7408 129.744 33.7408C124.704 33.7133 120.817 29.7532 120.817 24.7505Z" fill="#1B1345"/>
<path d="M139.091 24.7505C139.091 19.7386 142.95 15.7876 148.026 15.7876C153.102 15.7876 156.925 19.7477 156.925 24.7505C156.925 29.7623 153.102 33.7133 148.026 33.7133C142.941 33.7133 139.091 29.7532 139.091 24.7505ZM154.181 24.7505C154.181 21.1653 151.511 18.2844 148.026 18.2844C144.541 18.2844 141.834 21.1562 141.834 24.7505C141.834 28.299 144.541 31.2165 148.026 31.2165C151.511 31.2074 154.181 28.299 154.181 24.7505Z" fill="#1B1345"/>
<path d="M160.748 23.598C160.748 18.6958 164.031 15.7783 168.156 15.7783C172.317 15.7783 175.6 18.6867 175.6 23.598V32.259C175.6 33.0364 174.988 33.6492 174.247 33.6492C173.469 33.6492 172.893 33.0364 172.893 32.259V23.5248C172.893 20.0768 170.799 18.2843 168.156 18.2843C165.549 18.2843 163.455 20.0768 163.455 23.5248V32.259C163.455 33.0364 162.842 33.6492 162.101 33.6492C161.324 33.6492 160.748 33.0364 160.748 32.259V23.598Z" fill="#1B1345"/>
<path d="M85.5968 25.4635C84.984 26.0763 84.1609 26.4147 83.292 26.4147H79.652C77.4388 26.4147 75.637 28.2164 75.637 30.4297V34.0697C75.637 34.9385 75.2986 35.7617 74.6859 36.3744C72.5092 38.5511 68.7868 37.4536 68.1375 34.4538L65.092 20.4974C64.4883 17.7262 66.9485 15.266 69.7197 15.8696L83.6762 18.9151C86.6851 19.5645 87.7735 23.2868 85.5968 25.4635Z" fill="#631AFD"/>
<path d="M90.5173 29.6982L87.4717 15.7417C86.8132 12.7328 83.1001 11.6444 80.9234 13.8211C80.3106 14.4339 79.9722 15.257 79.9722 16.1258V17.1319L83.8774 17.9733C86.4931 18.5403 88.1485 21.1286 87.5815 23.7351C87.3803 24.6406 86.9321 25.4728 86.2736 26.1222C85.478 26.9087 84.4079 27.3569 83.2921 27.3569H79.6521C77.9601 27.3569 76.5974 28.7287 76.5974 30.4207V32.2956L85.8895 34.3259C88.6515 34.9296 91.1209 32.4693 90.5173 29.6982Z" fill="#FD0C56"/>
<path d="M76.8384 52.5429C77.43 52.6485 77.9318 52.9602 78.3438 53.4778C78.7558 53.9954 78.9618 54.5817 78.9618 55.2367C78.9618 55.7966 78.8139 56.3037 78.5181 56.758C78.2329 57.2016 77.8156 57.5555 77.2662 57.8196C76.7169 58.0732 76.0778 58.2 75.3489 58.2H70.9436V47.1869H75.1429C75.8929 47.1869 76.5373 47.3136 77.0761 47.5672C77.6149 47.8207 78.0216 48.1641 78.2962 48.5972C78.5709 49.0197 78.7082 49.4951 78.7082 50.0233C78.7082 50.6572 78.5392 51.1854 78.2012 51.608C77.8631 52.0305 77.4089 52.3422 76.8384 52.5429ZM72.7501 51.814H74.9844C75.576 51.814 76.0355 51.6819 76.363 51.4178C76.7011 51.1431 76.8701 50.7523 76.8701 50.2452C76.8701 49.7487 76.7011 49.3631 76.363 49.0884C76.0355 48.8032 75.576 48.6606 74.9844 48.6606H72.7501V51.814ZM75.1904 56.7263C75.8031 56.7263 76.2838 56.5784 76.6324 56.2826C76.981 55.9868 77.1553 55.5748 77.1553 55.0466C77.1553 54.5078 76.9705 54.08 76.6007 53.763C76.231 53.4461 75.7397 53.2876 75.127 53.2876H72.7501V56.7263H75.1904ZM90.6068 58.2L88.0715 53.7947H86.6928V58.2H84.8864V47.1869H88.6895C89.5346 47.1869 90.2477 47.3348 90.8287 47.6306C91.4203 47.9264 91.8587 48.3225 92.1439 48.819C92.4397 49.3155 92.5876 49.8702 92.5876 50.4829C92.5876 51.2012 92.3763 51.8562 91.9538 52.4478C91.5418 53.0288 90.9026 53.425 90.0364 53.6363L92.7619 58.2H90.6068ZM86.6928 52.3527H88.6895C89.3656 52.3527 89.8726 52.1837 90.2107 51.8456C90.5593 51.5076 90.7336 51.0533 90.7336 50.4829C90.7336 49.9124 90.5646 49.4687 90.2265 49.1518C89.8885 48.8243 89.3761 48.6606 88.6895 48.6606H86.6928V52.3527ZM103.883 58.3109C102.859 58.3109 101.913 58.0732 101.047 57.5978C100.191 57.1118 99.5098 56.441 99.0027 55.5853C98.5062 54.7191 98.2579 53.7472 98.2579 52.6696C98.2579 51.5921 98.5062 50.6255 99.0027 49.7698C99.5098 48.9141 100.191 48.2486 101.047 47.7732C101.913 47.2872 102.859 47.0443 103.883 47.0443C104.919 47.0443 105.864 47.2872 106.72 47.7732C107.586 48.2486 108.267 48.9141 108.764 49.7698C109.26 50.6255 109.509 51.5921 109.509 52.6696C109.509 53.7472 109.26 54.7191 108.764 55.5853C108.267 56.441 107.586 57.1118 106.72 57.5978C105.864 58.0732 104.919 58.3109 103.883 58.3109ZM103.883 56.7421C104.612 56.7421 105.262 56.5784 105.832 56.2509C106.403 55.9128 106.847 55.4374 107.163 54.8247C107.491 54.2014 107.655 53.4831 107.655 52.6696C107.655 51.8562 107.491 51.1431 107.163 50.5304C106.847 49.9177 106.403 49.4476 105.832 49.1201C105.262 48.7926 104.612 48.6289 103.883 48.6289C103.154 48.6289 102.505 48.7926 101.934 49.1201C101.364 49.4476 100.915 49.9177 100.587 50.5304C100.27 51.1431 100.112 51.8562 100.112 52.6696C100.112 53.4831 100.27 54.2014 100.587 54.8247C100.915 55.4374 101.364 55.9128 101.934 56.2509C102.505 56.5784 103.154 56.7421 103.883 56.7421ZM129.589 47.1869L126.324 58.2H124.28L121.967 49.8649L119.51 58.2L117.482 58.2158L114.36 47.1869H116.278L118.56 56.1558L121.032 47.1869H123.06L125.358 56.1083L127.655 47.1869H129.589ZM138.669 58.3109C137.929 58.3109 137.264 58.1841 136.672 57.9306C136.081 57.6665 135.616 57.2967 135.278 56.8213C134.94 56.346 134.771 55.7913 134.771 55.1575H136.704C136.746 55.6329 136.931 56.0237 137.259 56.3301C137.597 56.6365 138.067 56.7896 138.669 56.7896C139.292 56.7896 139.778 56.6417 140.127 56.346C140.475 56.0396 140.65 55.6487 140.65 55.1733C140.65 54.8036 140.539 54.5025 140.317 54.2701C140.106 54.0377 139.836 53.8581 139.509 53.7313C139.192 53.6046 138.748 53.4672 138.178 53.3193C137.459 53.1292 136.873 52.939 136.419 52.7489C135.975 52.5482 135.595 52.2418 135.278 51.8298C134.961 51.4178 134.802 50.8685 134.802 50.1818C134.802 49.548 134.961 48.9933 135.278 48.518C135.595 48.0426 136.038 47.6781 136.609 47.4246C137.179 47.171 137.84 47.0443 138.59 47.0443C139.657 47.0443 140.528 47.3136 141.204 47.8524C141.891 48.3806 142.271 49.1095 142.345 50.0392H140.349C140.317 49.6377 140.127 49.2944 139.778 49.0092C139.429 48.724 138.97 48.5813 138.399 48.5813C137.882 48.5813 137.459 48.7134 137.132 48.9775C136.804 49.2416 136.641 49.6219 136.641 50.1184C136.641 50.4565 136.741 50.7364 136.942 50.9583C137.153 51.1695 137.417 51.3386 137.734 51.4653C138.051 51.5921 138.484 51.7294 139.033 51.8773C139.762 52.0781 140.354 52.2788 140.808 52.4795C141.273 52.6802 141.664 52.9918 141.981 53.4144C142.308 53.8264 142.472 54.381 142.472 55.0783C142.472 55.6382 142.319 56.1664 142.012 56.6629C141.717 57.1594 141.278 57.5608 140.697 57.8672C140.127 58.163 139.451 58.3109 138.669 58.3109ZM150.371 48.6447V51.8773H154.175V53.351H150.371V56.7263H154.65V58.2H148.565V47.171H154.65V48.6447H150.371ZM166.557 58.2L164.022 53.7947H162.643V58.2H160.837V47.1869H164.64C165.485 47.1869 166.198 47.3348 166.779 47.6306C167.37 47.9264 167.809 48.3225 168.094 48.819C168.39 49.3155 168.538 49.8702 168.538 50.4829C168.538 51.2012 168.326 51.8562 167.904 52.4478C167.492 53.0288 166.853 53.425 165.987 53.6363L168.712 58.2H166.557ZM162.643 52.3527H164.64C165.316 52.3527 165.823 52.1837 166.161 51.8456C166.509 51.5076 166.684 51.0533 166.684 50.4829C166.684 49.9124 166.515 49.4687 166.177 49.1518C165.839 48.8243 165.326 48.6606 164.64 48.6606H162.643V52.3527Z" fill="#1B1345"/>
</svg>
