<svg width="100" height="120" viewBox="0 0 100 120" fill="none" xmlns="http://www.w3.org/2000/svg">
<rect x="2.5" y="2.5" width="95" height="115" rx="12.5" fill="white" stroke="#E5E0EF" stroke-width="5"/>
<path d="M58.0607 89.9393C57.4749 89.3536 56.5251 89.3536 55.9393 89.9393C55.3536 90.5251 55.3536 91.4749 55.9393 92.0607L58.0607 89.9393ZM63 97L61.9393 98.0607C62.5251 98.6464 63.4749 98.6464 64.0607 98.0607L63 97ZM55.9393 92.0607L61.9393 98.0607L64.0607 95.9393L58.0607 89.9393L55.9393 92.0607ZM64.0607 98.0607L68.5607 93.5607L66.4393 91.4393L61.9393 95.9393L64.0607 98.0607Z" fill="#1B1345"/>
<path d="M66.0607 89.9393C65.4749 89.3536 64.5251 89.3536 63.9393 89.9393C63.3536 90.5251 63.3536 91.4749 63.9393 92.0607L66.0607 89.9393ZM71 97L69.9393 98.0607C70.5251 98.6464 71.4749 98.6464 72.0607 98.0607L71 97ZM81.0607 89.0607C81.6464 88.4749 81.6464 87.5251 81.0607 86.9393C80.4749 86.3536 79.5251 86.3536 78.9393 86.9393L81.0607 89.0607ZM63.9393 92.0607L69.9393 98.0607L72.0607 95.9393L66.0607 89.9393L63.9393 92.0607ZM72.0607 98.0607L81.0607 89.0607L78.9393 86.9393L69.9393 95.9393L72.0607 98.0607Z" fill="#1B1345"/>
<path fill-rule="evenodd" clip-rule="evenodd" d="M87.8714 17.5526C88.2619 17.1621 88.2619 16.529 87.8714 16.1384L86.2684 14.5355L87.8714 12.9325C88.2619 12.542 88.2619 11.9088 87.8714 11.5183L87.5529 11.1998C87.1624 10.8093 86.5292 10.8093 86.1387 11.1998L84.5357 12.8028L82.9323 11.1994C82.5418 10.8089 81.9086 10.8089 81.5181 11.1994L81.1996 11.5179C80.8091 11.9084 80.8091 12.5416 81.1996 12.9321L82.803 14.5355L81.1997 16.1388C80.8091 16.5294 80.8091 17.1625 81.1997 17.5531L81.5182 17.8715C81.9087 18.2621 82.5418 18.2621 82.9324 17.8715L84.5357 16.2682L86.1387 17.8711C86.5292 18.2617 87.1624 18.2617 87.5529 17.8711L87.8714 17.5526Z" fill="#E5E0EF"/>
<circle cx="15.5" cy="14.5" r="2.5" fill="#DC7466"/>
<circle cx="24.5" cy="14.5" r="2.5" fill="#EDC567"/>
<circle cx="33.5" cy="14.5" r="2.5" fill="#631AFF"/>
<line x1="95" y1="24.5" x2="5" y2="24.5" stroke="#E5E0EF"/>
<rect x="12" y="32" width="30" height="38" rx="6" fill="#FF7A00"/>
<rect x="48" y="51" width="41" height="19" rx="3" fill="#1B1345"/>
<rect x="48" y="32" width="41" height="13" rx="3" fill="#631AFF"/>
<rect x="53" y="38" width="7" height="2" rx="1" fill="white"/>
<rect x="53" y="56" width="12" height="2" rx="1" fill="white"/>
<rect x="53" y="63" width="23" height="2" rx="1" fill="white"/>
<rect x="80" y="63" width="4" height="2" rx="1" fill="white"/>
<rect x="62" y="38" width="22" height="2" rx="1" fill="white"/>
<circle cx="27" cy="45" r="6" fill="#FFD7B3" stroke="#D56600" stroke-width="2"/>
<rect x="20" y="55" width="14" height="3" rx="1" fill="white"/>
<rect x="17" y="61" width="20" height="3" rx="1" fill="#FFD7B2"/>
<path fill-rule="evenodd" clip-rule="evenodd" d="M25.2138 80.2085C25.2544 80.2184 25.2949 80.2287 25.3354 80.2394C23.165 81.9805 21.5179 84.6082 20.6605 87.6589C19.0997 87.498 17.6248 87.2839 16.2599 87.0245C17.9689 83.5227 21.2661 80.9381 25.2138 80.2085ZM15.8419 97.019C15.2982 95.6175 15 94.0935 15 92.4999C15 91.2551 15.1819 90.0529 15.5207 88.9182C16.9827 89.2084 18.5613 89.4464 20.2286 89.6245C20.0784 90.5591 20 91.5214 20 92.4999C20 93.8244 20.1436 95.1191 20.4145 96.3557C18.8004 96.5232 17.2679 96.7465 15.8419 97.019ZM25.2138 104.791C21.6163 104.126 18.5589 101.921 16.7514 98.8847C18.0667 98.6497 19.4778 98.456 20.9643 98.3104C21.8784 100.947 23.3985 103.207 25.3354 104.76C25.2949 104.771 25.2544 104.781 25.2138 104.791ZM38.2486 98.8847C36.4411 101.921 33.3837 104.126 29.7862 104.791C29.7456 104.781 29.7051 104.771 29.6646 104.76C31.6015 103.207 33.1216 100.947 34.0357 98.3104C35.5222 98.456 36.9333 98.6497 38.2486 98.8847ZM39.4793 88.9182C39.8181 90.0529 40 91.2551 40 92.4999C40 94.0935 39.7018 95.6175 39.1581 97.019C37.7321 96.7466 36.1996 96.5232 34.5855 96.3557C34.8564 95.1191 35 93.8244 35 92.4999C35 91.5214 34.9216 90.5591 34.7714 89.6245C36.4387 89.4464 38.0173 89.2084 39.4793 88.9182ZM29.7862 80.2085C33.7339 80.9381 37.0311 83.5227 38.7401 87.0245C37.3752 87.2839 35.9003 87.498 34.3395 87.6589C33.4821 84.6082 31.835 81.9805 29.6646 80.2394C29.7051 80.2287 29.7456 80.2184 29.7862 80.2085ZM27.5 81.1759C25.351 82.4975 23.5935 84.8533 22.6806 87.8335C24.2258 87.9422 25.8391 87.9999 27.5 87.9999C29.1609 87.9999 30.7742 87.9422 32.3194 87.8335C31.4065 84.8533 29.649 82.4975 27.5 81.1759ZM22 92.4999C22 93.7926 22.1461 95.0263 22.4152 96.1801C24.0499 96.0621 25.7525 95.9999 27.5 95.9999C29.2475 95.9999 30.9501 96.0621 32.5848 96.1801C32.8539 95.0263 33 93.7926 33 92.4999C33 91.5685 32.9241 90.6676 32.7811 89.8052C31.0866 89.9326 29.3175 89.9999 27.5 89.9999C25.6825 89.9999 23.9134 89.9326 22.2189 89.8052C22.0759 90.6676 22 91.5685 22 92.4999ZM23.0185 98.1434C23.992 100.661 25.5916 102.65 27.5 103.824C29.4084 102.65 31.008 100.661 31.9815 98.1434C30.5396 98.0495 29.0403 97.9999 27.5 97.9999C25.9597 97.9999 24.4604 98.0495 23.0185 98.1434Z" fill="#631AFF"/>
</svg>
