<svg width="24" height="24" viewBox="0 0 24 24" fill="none" xmlns="http://www.w3.org/2000/svg">
<rect width="24" height="24" rx="12" fill="#631AFD"/>
<mask id="mask0_3_95" style="mask-type:alpha" maskUnits="userSpaceOnUse" x="0" y="0" width="24" height="24">
<rect width="24" height="24" rx="12" fill="#04BF83"/>
</mask>
<g mask="url(#mask0_3_95)">
<line x1="21.7071" y1="2.70711" x2="3.70711" y2="20.7071" stroke="#874EFF" stroke-width="2"/>
</g>
<path d="M9.69176 13.7648H7.14675L6.73877 14.9252H5L7.4673 8.35567H9.39063L11.8579 14.9252H10.0997L9.69176 13.7648ZM9.26435 12.5295L8.41925 10.1244L7.58387 12.5295H9.26435Z" fill="white"/>
<path d="M12.2786 12.3049C12.2786 11.7683 12.3822 11.2973 12.5894 10.8918C12.8031 10.4862 13.0913 10.1743 13.4539 9.95594C13.8166 9.73758 14.2213 9.6284 14.6682 9.6284C15.0243 9.6284 15.3481 9.70015 15.6395 9.84364C15.9374 9.98713 16.1706 10.1805 16.3389 10.4239V8.00006H18V14.9252H16.3389V14.1765C16.1835 14.4261 15.9601 14.6257 15.6687 14.7755C15.3838 14.9252 15.0502 15.0001 14.6682 15.0001C14.2213 15.0001 13.8166 14.8909 13.4539 14.6725C13.0913 14.4479 12.8031 14.1329 12.5894 13.7273C12.3822 13.3156 12.2786 12.8414 12.2786 12.3049ZM16.3389 12.3142C16.3389 11.9149 16.2224 11.5999 15.9892 11.369C15.7626 11.1382 15.4841 11.0228 15.1539 11.0228C14.8236 11.0228 14.5419 11.1382 14.3088 11.369C14.0821 11.5936 13.9688 11.9056 13.9688 12.3049C13.9688 12.7042 14.0821 13.0223 14.3088 13.2594C14.5419 13.4903 14.8236 13.6057 15.1539 13.6057C15.4841 13.6057 15.7626 13.4903 15.9892 13.2594C16.2224 13.0286 16.3389 12.7135 16.3389 12.3142Z" fill="white"/>
</svg>
