<svg width="16" height="16" viewBox="0 0 16 16" fill="none" xmlns="http://www.w3.org/2000/svg">
<path d="M9 3C9 2.44772 8.55228 2 8 2C7.44772 2 7 2.44772 7 3L9 3ZM8 12L7.25259 12.6644C7.44236 12.8779 7.71436 13 8 13C8.28564 13 8.55764 12.8779 8.74741 12.6644L8 12ZM12.7474 8.16436C13.1143 7.75158 13.0771 7.11951 12.6644 6.75259C12.2516 6.38567 11.6195 6.42285 11.2526 6.83564L12.7474 8.16436ZM4.74741 6.83564C4.38049 6.42285 3.74842 6.38567 3.33564 6.75259C2.92285 7.11951 2.88567 7.75158 3.25259 8.16436L4.74741 6.83564ZM7 3L7 12L9 12L9 3L7 3ZM8.74741 12.6644L12.7474 8.16436L11.2526 6.83564L7.25259 11.3356L8.74741 12.6644ZM8.74741 11.3356L4.74741 6.83564L3.25259 8.16436L7.25259 12.6644L8.74741 11.3356Z" fill="#631AFF"/>
</svg>
