<svg width="24" height="24" viewBox="0 0 24 24" fill="none" xmlns="http://www.w3.org/2000/svg">
<path d="M4.22223 4C4.22223 2.89543 5.11766 2 6.22223 2H17.7778C18.8824 2 19.7778 2.89543 19.7778 4V7.55556H4.22223V4Z" stroke="#631AFD" stroke-width="1.5"/>
<path d="M4.22223 7.55554H19.7778V13.1111H4.22223V7.55554Z" stroke="#631AFD" stroke-width="1.5"/>
<path d="M4.22223 13.1111H19.7778V17.6666C19.7778 18.2189 19.3301 18.6666 18.7778 18.6666H5.22223C4.66994 18.6666 4.22223 18.2189 4.22223 17.6666V13.1111Z" stroke="#631AFD" stroke-width="1.5"/>
<path d="M18.1111 15.8889C18.1111 16.5026 17.6136 17.0001 17 17.0001C16.3863 17.0001 15.8889 16.5026 15.8889 15.8889C15.8889 15.2753 16.3863 14.7778 17 14.7778C17.6136 14.7778 18.1111 15.2753 18.1111 15.8889Z" fill="#631AFD"/>
<path d="M18.1111 10.3333C18.1111 10.9469 17.6136 11.4444 17 11.4444C16.3863 11.4444 15.8889 10.9469 15.8889 10.3333C15.8889 9.71963 16.3863 9.22217 17 9.22217C17.6136 9.22217 18.1111 9.71963 18.1111 10.3333Z" fill="#631AFD"/>
<path d="M18.1111 4.77774C18.1111 5.39139 17.6136 5.88885 17 5.88885C16.3863 5.88885 15.8889 5.39139 15.8889 4.77774C15.8889 4.16409 16.3863 3.66663 17 3.66663C17.6136 3.66663 18.1111 4.16409 18.1111 4.77774Z" fill="#631AFD"/>
<path d="M10.8889 15.8889C10.8889 16.1958 11.1376 16.4445 11.4444 16.4445C11.7513 16.4445 12 16.1958 12 15.8889C12 15.5821 11.7513 15.3334 11.4444 15.3334C11.1376 15.3334 10.8889 15.5821 10.8889 15.8889Z" fill="#631AFD"/>
<path d="M10.8889 10.3334C10.8889 10.6402 11.1376 10.8889 11.4444 10.8889C11.7513 10.8889 12 10.6402 12 10.3334C12 10.0266 11.7513 9.77783 11.4444 9.77783C11.1376 9.77783 10.8889 10.0266 10.8889 10.3334Z" fill="#631AFD"/>
<path d="M10.8889 4.77772C10.8889 5.08455 11.1376 5.33328 11.4444 5.33328C11.7513 5.33328 12 5.08455 12 4.77772C12 4.4709 11.7513 4.22217 11.4444 4.22217C11.1376 4.22217 10.8889 4.4709 10.8889 4.77772Z" fill="#631AFD"/>
<path d="M13.1111 15.8889C13.1111 16.1958 13.3598 16.4445 13.6667 16.4445C13.9735 16.4445 14.2222 16.1958 14.2222 15.8889C14.2222 15.5821 13.9735 15.3334 13.6667 15.3334C13.3598 15.3334 13.1111 15.5821 13.1111 15.8889Z" fill="#631AFD"/>
<path d="M13.1111 10.3334C13.1111 10.6402 13.3598 10.8889 13.6667 10.8889C13.9735 10.8889 14.2222 10.6402 14.2222 10.3334C14.2222 10.0266 13.9735 9.77783 13.6667 9.77783C13.3598 9.77783 13.1111 10.0266 13.1111 10.3334Z" fill="#631AFD"/>
<path d="M13.1111 4.77772C13.1111 5.08455 13.3598 5.33328 13.6667 5.33328C13.9735 5.33328 14.2222 5.08455 14.2222 4.77772C14.2222 4.4709 13.9735 4.22217 13.6667 4.22217C13.3598 4.22217 13.1111 4.4709 13.1111 4.77772Z" fill="#631AFD"/>
<path d="M8.66666 15.8889C8.66666 16.1958 8.91539 16.4445 9.22222 16.4445C9.52904 16.4445 9.77777 16.1958 9.77777 15.8889C9.77777 15.5821 9.52904 15.3334 9.22222 15.3334C8.91539 15.3334 8.66666 15.5821 8.66666 15.8889Z" fill="#631AFD"/>
<path d="M8.66666 10.3334C8.66666 10.6402 8.91539 10.8889 9.22222 10.8889C9.52904 10.8889 9.77777 10.6402 9.77777 10.3334C9.77777 10.0266 9.52904 9.77783 9.22222 9.77783C8.91539 9.77783 8.66666 10.0266 8.66666 10.3334Z" fill="#631AFD"/>
<path d="M8.66666 4.77772C8.66666 5.08455 8.91539 5.33328 9.22222 5.33328C9.52904 5.33328 9.77777 5.08455 9.77777 4.77772C9.77777 4.4709 9.52904 4.22217 9.22222 4.22217C8.91539 4.22217 8.66666 4.4709 8.66666 4.77772Z" fill="#631AFD"/>
<path d="M6.44446 15.8889C6.44446 16.1958 6.69319 16.4445 7.00002 16.4445C7.30684 16.4445 7.55557 16.1958 7.55557 15.8889C7.55557 15.5821 7.30684 15.3334 7.00002 15.3334C6.69319 15.3334 6.44446 15.5821 6.44446 15.8889Z" fill="#631AFD"/>
<path d="M6.44446 10.3334C6.44446 10.6402 6.69319 10.8889 7.00002 10.8889C7.30684 10.8889 7.55557 10.6402 7.55557 10.3334C7.55557 10.0266 7.30684 9.77783 7.00002 9.77783C6.69319 9.77783 6.44446 10.0266 6.44446 10.3334Z" fill="#631AFD"/>
<path d="M6.44446 4.77772C6.44446 5.08455 6.69319 5.33328 7.00002 5.33328C7.30684 5.33328 7.55557 5.08455 7.55557 4.77772C7.55557 4.4709 7.30684 4.22217 7.00002 4.22217C6.69319 4.22217 6.44446 4.4709 6.44446 4.77772Z" fill="#631AFD"/>
<path d="M15.3333 22.75C15.7476 22.75 16.0833 22.4142 16.0833 22C16.0833 21.5857 15.7476 21.25 15.3333 21.25L15.3333 22.75ZM8.66668 21.25C8.25246 21.25 7.91668 21.5857 7.91668 22C7.91668 22.4142 8.25246 22.75 8.66668 22.75L8.66668 21.25ZM11.25 18.6666L11.25 22L12.75 22L12.75 18.6666L11.25 18.6666ZM12 22.75L15.3333 22.75L15.3333 21.25L12 21.25L12 22.75ZM12 21.25L8.66668 21.25L8.66668 22.75L12 22.75L12 21.25Z" fill="#631AFD"/>
</svg>
