<svg width="100" height="120" viewBox="0 0 100 120" fill="none" xmlns="http://www.w3.org/2000/svg">
<rect x="2.5" y="2.5" width="95" height="115" rx="12.5" fill="white" stroke="#E5E0EF" stroke-width="5"/>
<path fill-rule="evenodd" clip-rule="evenodd" d="M87.8714 17.5526C88.2619 17.1621 88.2619 16.529 87.8714 16.1384L86.2684 14.5355L87.8714 12.9325C88.2619 12.542 88.2619 11.9088 87.8714 11.5183L87.5529 11.1998C87.1624 10.8093 86.5292 10.8093 86.1387 11.1998L84.5357 12.8028L82.9323 11.1994C82.5418 10.8089 81.9086 10.8089 81.5181 11.1994L81.1996 11.5179C80.8091 11.9084 80.8091 12.5416 81.1996 12.9321L82.803 14.5355L81.1997 16.1388C80.8091 16.5294 80.8091 17.1625 81.1997 17.5531L81.5182 17.8715C81.9087 18.2621 82.5418 18.2621 82.9324 17.8715L84.5357 16.2682L86.1387 17.8711C86.5292 18.2617 87.1624 18.2617 87.5529 17.8711L87.8714 17.5526Z" fill="#E5E0EF"/>
<circle cx="15.5" cy="14.5" r="2.5" fill="#DC7466"/>
<circle cx="24.5" cy="14.5" r="2.5" fill="#EDC567"/>
<circle cx="33.5" cy="14.5" r="2.5" fill="#631AFF"/>
<line x1="98" y1="24.5" x2="1" y2="24.5" stroke="#E5E0EF"/>
<rect x="14" y="34" width="20" height="20" rx="4" fill="#631AFF"/>
<rect x="14" y="60" width="20" height="20" rx="4" fill="#9590AE"/>
<path d="M24 65L25.6164 67.7752L28.7553 68.4549L26.6154 70.8498L26.9389 74.0451L24 72.75L21.0611 74.0451L21.3846 70.8498L19.2447 68.4549L22.3836 67.7752L24 65Z" fill="white"/>
<rect x="40" y="34" width="20" height="20" rx="4" fill="#1B1345"/>
<rect x="40" y="60" width="20" height="20" rx="4" fill="#631AFF"/>
<circle cx="50" cy="70" r="4" fill="white"/>
<rect x="66" y="34" width="20" height="20" rx="4" fill="#631AFF"/>
<path d="M72 40L80 48H72V40Z" fill="white"/>
<rect x="66" y="60" width="20" height="20" rx="4" fill="#9590AE"/>
<path d="M74.7071 68.2929C74.3166 67.9024 73.6834 67.9024 73.2929 68.2929C72.9024 68.6834 72.9024 69.3166 73.2929 69.7071L74.7071 68.2929ZM76 71L75.2929 71.7071C75.6834 72.0976 76.3166 72.0976 76.7071 71.7071L76 71ZM79.7071 68.7071C80.0976 68.3166 80.0976 67.6834 79.7071 67.2929C79.3166 66.9024 78.6834 66.9024 78.2929 67.2929L79.7071 68.7071ZM73.2929 69.7071L75.2929 71.7071L76.7071 70.2929L74.7071 68.2929L73.2929 69.7071ZM76.7071 71.7071L79.7071 68.7071L78.2929 67.2929L75.2929 70.2929L76.7071 71.7071Z" fill="white"/>
<path d="M28 44C28 44.7911 27.7654 45.5645 27.3259 46.2223C26.8864 46.8801 26.2616 47.3928 25.5307 47.6955C24.7998 47.9983 23.9956 48.0775 23.2196 47.9231C22.4437 47.7688 21.731 47.3878 21.1716 46.8284C20.6122 46.269 20.2312 45.5563 20.0769 44.7804C19.9225 44.0044 20.0017 43.2002 20.3045 42.4693C20.6072 41.7384 21.1199 41.1136 21.7777 40.6741C22.4355 40.2346 23.2089 40 24 40V44H28Z" fill="white"/>
<path d="M47.1716 46.8284C46.6122 46.269 46.2312 45.5563 46.0769 44.7804C45.9225 44.0044 46.0017 43.2002 46.3045 42.4693C46.6072 41.7384 47.1199 41.1136 47.7777 40.6741C48.4355 40.2346 49.2089 40 50 40C50.7911 40 51.5645 40.2346 52.2223 40.6741C52.8801 41.1136 53.3928 41.7384 53.6955 42.4693C53.9983 43.2002 54.0775 44.0044 53.9231 44.7804C53.7688 45.5563 53.3878 46.269 52.8284 46.8284L51.1314 45.1314C51.3551 44.9076 51.5075 44.6225 51.5693 44.3121C51.631 44.0018 51.5993 43.6801 51.4782 43.3877C51.3571 43.0953 51.152 42.8455 50.8889 42.6696C50.6258 42.4938 50.3165 42.4 50 42.4C49.6835 42.4 49.3742 42.4938 49.1111 42.6696C48.848 42.8455 48.6429 43.0953 48.5218 43.3877C48.4007 43.6801 48.369 44.0018 48.4307 44.3121C48.4925 44.6225 48.6449 44.9076 48.8686 45.1314L47.1716 46.8284Z" fill="white"/>
</svg>
