<svg width="24" height="24" viewBox="0 0 24 24" fill="none" xmlns="http://www.w3.org/2000/svg">
<circle cx="12" cy="12" r="12" fill="url(#paint0_linear_3_419)"/>
<path d="M16.577 8.26376C16.577 7.79848 16.1999 7.42278 15.7364 7.42278C15.2728 7.42278 14.8954 7.79848 14.8954 8.26376C14.8954 8.72733 15.2728 9.10303 15.7364 9.10303C16.1999 9.10303 16.577 8.72733 16.577 8.26376Z" fill="white"/>
<path d="M17.6972 14.8283C17.666 15.5108 17.5519 15.8817 17.4571 16.128C17.3298 16.4545 17.1779 16.6881 16.9316 16.933C16.6881 17.1779 16.4545 17.3294 16.128 17.4553C15.8817 17.5515 15.5094 17.666 14.8269 17.6986C14.089 17.7311 13.8703 17.738 11.9991 17.738C10.1297 17.738 9.90929 17.7311 9.17139 17.6986C8.48886 17.666 8.11836 17.5515 7.87203 17.4553C7.54374 17.3294 7.31196 17.1779 7.06703 16.933C6.82037 16.6881 6.66851 16.4545 6.54293 16.128C6.44812 15.8817 6.33225 15.5108 6.30283 14.8283C6.26687 14.0904 6.26028 13.8683 6.26028 12.0009C6.26028 10.1297 6.26687 9.90929 6.30283 9.17139C6.33225 8.48886 6.44812 8.11835 6.54293 7.86995C6.66851 7.54373 6.82037 7.3116 7.06703 7.06667C7.31196 6.82211 7.54374 6.67022 7.87203 6.54293C8.11836 6.44641 8.48886 6.33362 9.17139 6.30112C9.90929 6.26858 10.1297 6.26028 11.9991 6.26028C13.8703 6.26028 14.089 6.26858 14.8269 6.30112C15.5094 6.33362 15.8817 6.44641 16.128 6.54293C16.4545 6.67022 16.6881 6.82211 16.9316 7.06667C17.1779 7.3116 17.3298 7.54373 17.4571 7.86995C17.5519 8.11835 17.666 8.48886 17.6972 9.17139C17.7314 9.90929 17.7397 10.1297 17.7397 12.0009C17.7397 13.8683 17.7314 14.0904 17.6972 14.8283ZM18.9574 9.11397C18.9232 8.36811 18.8056 7.85853 18.6309 7.41471C18.4531 6.95425 18.2147 6.56402 17.8245 6.1738C17.436 5.78531 17.0458 5.54695 16.5853 5.36707C16.1397 5.19409 15.6319 5.07508 14.8857 5.04256C14.1395 5.00658 13.9011 5.00001 11.9991 5.00001C10.0989 5.00001 9.8588 5.00658 9.1126 5.04256C8.36811 5.07508 7.86061 5.19409 7.41297 5.36707C6.95425 5.54695 6.56402 5.78531 6.17554 6.1738C5.78532 6.56402 5.54695 6.95425 5.36741 7.41471C5.19443 7.85853 5.07681 8.36811 5.04083 9.11397C5.00832 9.86017 5.00002 10.0989 5.00002 12.0009C5.00002 13.9011 5.00832 14.1395 5.04083 14.8857C5.07681 15.6302 5.19443 16.1394 5.36741 16.5853C5.54695 17.044 5.78532 17.436 6.17554 17.8245C6.56402 18.213 6.95425 18.4531 7.41297 18.6326C7.86061 18.8056 8.36811 18.9232 9.1126 18.9574C9.8588 18.9917 10.0989 19 11.9991 19C13.9011 19 14.1395 18.9917 14.8857 18.9574C15.6319 18.9232 16.1397 18.8056 16.5853 18.6326C17.0458 18.4531 17.436 18.213 17.8245 17.8245C18.2147 17.436 18.4531 17.044 18.6309 16.5853C18.8056 16.1394 18.9232 15.6302 18.9574 14.8857C18.9917 14.1395 19 13.9011 19 12.0009C19 10.0989 18.9917 9.86017 18.9574 9.11397Z" fill="white"/>
<path d="M11.9991 14.3322C10.7112 14.3322 9.66609 13.2889 9.66609 12.0009C9.66609 10.7109 10.7112 9.66615 11.9991 9.66615C13.2874 9.66615 14.3339 10.7109 14.3339 12.0009C14.3339 13.2889 13.2874 14.3322 11.9991 14.3322ZM11.9991 8.40415C10.0138 8.40415 8.40583 10.0155 8.40583 12.0009C8.40583 13.9846 10.0138 15.5942 11.9991 15.5942C13.9845 15.5942 15.5942 13.9846 15.5942 12.0009C15.5942 10.0155 13.9845 8.40415 11.9991 8.40415Z" fill="white"/>
<defs>
<linearGradient id="paint0_linear_3_419" x1="20" y1="3" x2="4" y2="20.5" gradientUnits="userSpaceOnUse">
<stop stop-color="#BA01B5"/>
<stop offset="0.477717" stop-color="#F1010E"/>
<stop offset="1" stop-color="#FEB91D"/>
</linearGradient>
</defs>
</svg>
