<svg width="32" height="32" viewBox="0 0 32 32" fill="none" xmlns="http://www.w3.org/2000/svg">
<path d="M24.6018 21.924C24.2607 22.7275 23.8569 23.4672 23.3891 24.1473C22.7514 25.0743 22.2292 25.716 21.8268 26.0724C21.2031 26.6573 20.5347 26.9569 19.8191 26.9739C19.3053 26.9739 18.6857 26.8248 17.9645 26.5224C17.2409 26.2214 16.5759 26.0724 15.9678 26.0724C15.3301 26.0724 14.6462 26.2214 13.9147 26.5224C13.182 26.8248 12.5918 26.9824 12.1405 26.998C11.4543 27.0278 10.7702 26.7198 10.0874 26.0724C9.65157 25.6848 9.10648 25.0204 8.45345 24.0791C7.75283 23.0739 7.17682 21.9084 6.72555 20.5795C6.24227 19.1442 6 17.7543 6 16.4087C6 14.8673 6.32665 13.5379 6.98091 12.4239C7.49511 11.529 8.17917 10.8231 9.03533 10.305C9.89147 9.78676 10.8166 9.52268 11.8128 9.50581C12.3579 9.50581 13.0727 9.67773 13.961 10.0156C14.8469 10.3547 15.4156 10.5266 15.665 10.5266C15.8514 10.5266 16.4833 10.3255 17.5544 9.92476C18.5674 9.55308 19.4222 9.39916 20.1226 9.4598C22.0204 9.61597 23.4461 10.3788 24.3943 11.7531C22.6971 12.8017 21.8575 14.2703 21.8742 16.1544C21.8895 17.622 22.4116 18.8432 23.4378 19.8129C23.9028 20.2629 24.4222 20.6108 25 20.8578C24.8747 21.2283 24.7424 21.5833 24.6018 21.924V21.924ZM20.2493 4.46014C20.2493 5.61039 19.8372 6.68439 19.0157 7.67848C18.0243 8.86025 16.8253 9.54312 15.5249 9.43537C15.5075 9.29076 15.4988 9.1452 15.4987 8.99951C15.4987 7.89526 15.9702 6.71349 16.8074 5.74724C17.2254 5.25801 17.757 4.85123 18.4017 4.52672C19.0449 4.20706 19.6534 4.03028 20.2256 4C20.2424 4.15377 20.2493 4.30755 20.2493 4.46012V4.46014Z" fill="#1B1345"/>
</svg>
