<svg width="233" height="15" viewBox="0 0 233 15" fill="none" xmlns="http://www.w3.org/2000/svg">
<path d="M2.23115 10.5181C1.1366 10.6665 0.3696 11.6742 0.518014 12.7687C0.666428 13.8633 1.67405 14.6303 2.76861 14.4819L2.23115 10.5181ZM230.971 4.49979C232.076 4.51557 232.984 3.63302 233 2.52857C233.015 1.42411 232.133 0.515981 231.028 0.500203L230.971 4.49979ZM2.49988 12.5C2.76861 14.4819 2.76872 14.4818 2.76917 14.4818C2.76977 14.4817 2.77055 14.4816 2.77175 14.4814C2.77415 14.4811 2.7779 14.4806 2.78299 14.4799C2.79317 14.4786 2.80873 14.4765 2.82967 14.4737C2.87153 14.4681 2.93485 14.4596 3.01949 14.4485C3.18878 14.4261 3.44334 14.3929 3.78205 14.3495C4.45947 14.2627 5.4735 14.1354 6.81508 13.9739C9.49825 13.651 13.4916 13.1912 18.723 12.6455C29.1858 11.554 44.6003 10.1185 64.3883 8.7452C103.965 5.99855 161.034 3.50069 230.971 4.49979L231.028 0.500203C160.966 -0.500691 103.785 2.00144 64.1114 4.7548C44.2745 6.13149 28.8139 7.57104 18.308 8.66704C13.055 9.21505 9.04057 9.67717 6.33702 10.0026C4.98525 10.1653 3.96118 10.2939 3.27386 10.3819C2.9302 10.4259 2.67072 10.4598 2.49656 10.4828C2.40948 10.4943 2.34373 10.503 2.29945 10.509C2.27731 10.5119 2.26053 10.5142 2.24914 10.5157C2.24345 10.5165 2.2391 10.5171 2.2361 10.5175C2.2346 10.5177 2.23336 10.5178 2.23261 10.5179C2.23171 10.5181 2.23115 10.5181 2.49988 12.5Z" fill="#FD0C56"/>
</svg>
