<svg width="90" height="7" viewBox="0 0 90 7" fill="none" xmlns="http://www.w3.org/2000/svg">
<path d="M0.830328 5.0145C0.286051 5.10821 -0.079208 5.6254 0.0144995 6.16967C0.108207 6.71395 0.625396 7.07921 1.16967 6.9855L0.830328 5.0145ZM88.9819 2.10979C89.5341 2.11981 89.9898 1.68028 89.9998 1.12809C90.0099 0.575896 89.5703 0.120135 89.0181 0.110118L88.9819 2.10979ZM1 6C1.16967 6.9855 1.16966 6.9855 1.16978 6.98548C1.16999 6.98545 1.17024 6.9854 1.17067 6.98533C1.17152 6.98518 1.17289 6.98495 1.17478 6.98463C1.17856 6.98398 1.18441 6.98298 1.19232 6.98164C1.20815 6.97895 1.23225 6.97488 1.26455 6.96947C1.32916 6.95865 1.42661 6.94249 1.55646 6.92137C1.81616 6.87913 2.20547 6.81707 2.72091 6.73829C3.75179 6.58072 5.28718 6.35626 7.29926 6.08974C11.3234 5.55669 17.2542 4.85539 24.869 4.18436C40.0988 2.84229 62.0632 1.62151 88.9819 2.10979L89.0181 0.110118C62.02 -0.379607 39.9844 0.844627 24.6934 2.19208C17.0478 2.86582 11.0879 3.57041 7.03663 4.10706C5.01096 4.37538 3.46237 4.60173 2.41872 4.76125C1.8969 4.84101 1.5013 4.90406 1.23541 4.94731C1.10246 4.96893 1.00194 4.9856 0.934283 4.99693C0.900454 5.00259 0.87484 5.00692 0.857496 5.00986C0.848824 5.01134 0.84222 5.01246 0.837689 5.01324C0.835424 5.01363 0.833677 5.01392 0.83245 5.01413C0.831837 5.01424 0.831306 5.01433 0.830999 5.01438C0.830598 5.01445 0.830328 5.0145 1 6Z" fill="#FD0C56"/>
</svg>
