<svg width="24" height="24" viewBox="0 0 24 24" fill="none" xmlns="http://www.w3.org/2000/svg">
<circle cx="12" cy="12" r="12" fill="#0A66C2"/>
<path d="M16.5766 16.577H14.6504V13.5603C14.6504 12.841 14.6376 11.915 13.6486 11.915C12.6454 11.915 12.4919 12.6987 12.4919 13.508V16.5768H10.5657V10.3734H12.4148V11.2211H12.4407C12.6258 10.9047 12.8932 10.6444 13.2145 10.468C13.5358 10.2915 13.8989 10.2055 14.2652 10.2191C16.2175 10.2191 16.5774 11.5033 16.5774 13.1739L16.5766 16.577ZM8.3923 9.52544C8.17122 9.52548 7.9551 9.45996 7.77125 9.33716C7.58741 9.21437 7.44411 9.03981 7.35947 8.83557C7.27483 8.63133 7.25265 8.40657 7.29574 8.18972C7.33884 7.97288 7.44526 7.77368 7.60156 7.61732C7.75786 7.46096 7.95701 7.35446 8.17383 7.31129C8.39065 7.26812 8.61541 7.29022 8.81967 7.37479C9.02394 7.45936 9.19854 7.6026 9.3214 7.7864C9.44426 7.97021 9.50985 8.18632 9.50989 8.4074C9.50992 8.5542 9.48103 8.69956 9.42488 8.8352C9.36873 8.97083 9.28642 9.09407 9.18264 9.19789C9.07886 9.30171 8.95565 9.38407 8.82005 9.44027C8.68444 9.49647 8.53909 9.52541 8.3923 9.52544ZM9.3554 16.577H7.4272V10.3734H9.3554V16.577ZM17.5369 5.50096H6.45928C6.20785 5.49812 5.96558 5.59523 5.78571 5.77093C5.60583 5.94664 5.50307 6.18657 5.5 6.43801V17.562C5.50296 17.8135 5.60566 18.0536 5.78553 18.2295C5.9654 18.4054 6.20773 18.5027 6.45928 18.5H17.5369C17.789 18.5032 18.032 18.4061 18.2125 18.2303C18.3931 18.0544 18.4965 17.814 18.5 17.562V6.4372C18.4964 6.18527 18.393 5.94506 18.2124 5.76936C18.0318 5.59366 17.7888 5.49764 17.5369 5.50096Z" fill="white"/>
</svg>
