<svg width="125" height="28" viewBox="0 0 125 28" fill="none" xmlns="http://www.w3.org/2000/svg">
<path d="M41.8983 12.3109C41.8983 6.78505 45.5994 3.49634 50.2489 3.49634C54.9397 3.49634 58.6408 6.77475 58.6408 12.3109V22.074C58.6408 22.9503 57.9501 23.641 57.115 23.641C56.2387 23.641 55.5892 22.9503 55.5892 22.074V12.2285C55.5892 8.34178 53.2284 6.32113 50.2489 6.32113C47.3107 6.32113 44.9499 8.34178 44.9499 12.2285V22.074C44.9499 22.9503 44.2591 23.641 43.4241 23.641C42.5477 23.641 41.8983 22.9503 41.8983 22.074V12.3109Z" fill="#1B1345"/>
<path d="M62.9195 13.6096C62.9195 7.96003 67.2701 3.50635 72.9918 3.50635C75.7754 3.50635 78.1053 4.57853 79.5899 5.94969C79.9301 6.25897 80.1569 6.67135 80.1569 7.13528C80.1569 7.51673 80.0435 7.85694 79.6621 8.27963L72.8681 16.4035C72.5588 16.7437 72.2186 16.8983 71.7959 16.8983C70.9609 16.8983 70.3423 16.3313 70.3423 15.5272C70.3423 15.187 70.4145 14.8364 70.6825 14.5787L76.6311 7.55797C75.6414 6.7229 74.229 6.34145 72.9712 6.34145C69.0846 6.34145 65.9917 9.54769 65.9917 13.6302C65.9917 17.6715 69.0433 20.919 72.9712 20.919C75.1465 20.919 76.8579 19.9706 78.0435 18.6303C78.4662 18.2489 78.8064 17.9396 79.3425 17.9396C80.2188 17.9396 80.8683 18.5479 80.8683 19.3932C80.8683 19.7025 80.6724 20.1149 80.4146 20.4242C78.8167 22.3314 76.1775 23.7438 72.9815 23.7438C67.301 23.7129 62.9195 19.2489 62.9195 13.6096Z" fill="#1B1345"/>
<path d="M83.5177 13.6096C83.5177 7.96003 87.8683 3.50635 93.59 3.50635C99.3118 3.50635 103.621 7.97034 103.621 13.6096C103.621 19.2592 99.3118 23.7129 93.59 23.7129C87.858 23.7129 83.5177 19.2489 83.5177 13.6096ZM100.528 13.6096C100.528 9.56831 97.5179 6.32083 93.59 6.32083C89.6621 6.32083 86.6105 9.558 86.6105 13.6096C86.6105 17.6097 89.6621 20.8984 93.59 20.8984C97.5179 20.8881 100.528 17.6097 100.528 13.6096Z" fill="#1B1345"/>
<path d="M107.93 12.3109C107.93 6.78505 111.631 3.49634 116.281 3.49634C120.972 3.49634 124.673 6.77475 124.673 12.3109V22.074C124.673 22.9503 123.982 23.641 123.147 23.641C122.271 23.641 121.621 22.9503 121.621 22.074V12.2285C121.621 8.34178 119.26 6.32113 116.281 6.32113C113.343 6.32113 110.982 8.34178 110.982 12.2285V22.074C110.982 22.9503 110.291 23.641 109.456 23.641C108.58 23.641 107.93 22.9503 107.93 22.074V12.3109Z" fill="#1B1345"/>
<path d="M23.2175 14.4137C22.5268 15.1044 21.5989 15.4859 20.6195 15.4859H16.5164C14.0215 15.4859 11.9905 17.5169 11.9905 20.0117V24.1149C11.9905 25.0943 11.6091 26.0222 10.9183 26.7129C8.46469 29.1665 4.26874 27.9294 3.53677 24.5479L0.103723 8.81567C-0.576701 5.69191 2.19654 2.91866 5.32031 3.59908L21.0525 7.03213C24.4444 7.76411 25.6712 11.9601 23.2175 14.4137Z" fill="#631AFF"/>
<path d="M28.7638 19.1869L25.3308 3.45467C24.5885 0.0628547 20.4028 -1.16397 17.9492 1.28968C17.2585 1.98041 16.877 2.90827 16.877 3.88766V5.02171L21.2791 5.97018C24.2277 6.60936 26.0937 9.52694 25.4545 12.4651C25.2277 13.4858 24.7225 14.4239 23.9802 15.1559C23.0833 16.0425 21.8771 16.5477 20.6193 16.5477H16.5162C14.6089 16.5477 13.0728 18.0941 13.0728 20.0014V22.1148L23.5472 24.4035C26.6607 25.0839 29.4442 22.3107 28.7638 19.1869Z" fill="#FD0C56"/>
</svg>
