<svg width="32" height="32" viewBox="0 0 32 32" fill="none" xmlns="http://www.w3.org/2000/svg">
<path d="M23.3188 9.82088L25.8073 5.72073C25.9478 5.49086 25.8628 5.19892 25.6244 5.06535C25.386 4.93178 25.0758 5.00944 24.9386 5.23927L22.4174 9.39221C20.4938 8.55666 18.3286 8.09072 16 8.09072C13.6714 8.09072 11.5062 8.55666 9.58261 9.39221L7.06136 5.23931C7.02825 5.18473 6.98413 5.13692 6.93153 5.09861C6.87892 5.0603 6.81888 5.03226 6.75484 5.0161C6.69081 4.99994 6.62404 4.99597 6.55839 5.00443C6.49274 5.01289 6.42949 5.03361 6.37229 5.06539C6.3149 5.09688 6.26462 5.13884 6.22434 5.18887C6.18406 5.2389 6.15457 5.29601 6.13758 5.35692C6.12058 5.41783 6.11642 5.48133 6.12531 5.54377C6.13421 5.60621 6.156 5.66637 6.18943 5.72077L8.67796 9.82092C4.38668 12.0325 1.4801 16.1637 1 21H31C30.5199 16.1637 27.6133 12.0325 23.3188 9.82088ZM9.11236 16.993C8.41677 16.993 7.85501 16.4556 7.85501 15.7971C7.85501 15.1355 8.42001 14.6012 9.11236 14.6012C9.80795 14.6012 10.3697 15.1386 10.3697 15.7971C10.3731 16.4556 9.80799 16.993 9.11236 16.993ZM22.8844 16.993C22.1888 16.993 21.627 16.4556 21.627 15.7971C21.627 15.1355 22.192 14.6012 22.8844 14.6012C23.58 14.6012 24.1417 15.1386 24.1417 15.7971C24.1452 16.4556 23.58 16.993 22.8844 16.993Z" fill="#32DE84"/>
</svg>
