<svg width="24" height="24" viewBox="0 0 24 24" fill="none" xmlns="http://www.w3.org/2000/svg">
<mask id="path-1-inside-1_3_324" fill="white">
<path fill-rule="evenodd" clip-rule="evenodd" d="M15 15H12.5H9.5H4.5C2.01472 15 0 12.9853 0 10.5C0 8.01472 2.01472 6 4.5 6H5.15003C5.84493 2.57664 8.87156 0 12.5 0C15.7782 0 18.5652 2.10321 19.5851 5.03387C22.0708 5.3236 24 7.43651 24 10C24 12.7614 21.7614 15 19 15H15Z"/>
</mask>
<path d="M5.15003 6V7.5C5.86343 7.5 6.47813 6.99754 6.62005 6.2984L5.15003 6ZM19.5851 5.03387L18.1685 5.52692C18.3575 6.06999 18.8403 6.45721 19.4115 6.52379L19.5851 5.03387ZM15 13.5H12.5V16.5H15V13.5ZM12.5 13.5H9.5V16.5H12.5V13.5ZM4.5 16.5H9.5V13.5H4.5V16.5ZM-1.5 10.5C-1.5 13.8137 1.18629 16.5 4.5 16.5V13.5C2.84315 13.5 1.5 12.1569 1.5 10.5H-1.5ZM4.5 4.5C1.18629 4.5 -1.5 7.18629 -1.5 10.5H1.5C1.5 8.84315 2.84315 7.5 4.5 7.5V4.5ZM5.15003 4.5H4.5V7.5H5.15003V4.5ZM12.5 -1.5C8.14413 -1.5 4.51402 1.59294 3.68001 5.7016L6.62005 6.2984C7.17584 3.56034 9.59899 1.5 12.5 1.5V-1.5ZM21.0018 4.54083C19.7785 1.02597 16.4362 -1.5 12.5 -1.5V1.5C15.1202 1.5 17.3518 3.18045 18.1685 5.52692L21.0018 4.54083ZM19.4115 6.52379C21.1499 6.72642 22.5 8.20662 22.5 10H25.5C25.5 6.66641 22.9918 3.92079 19.7588 3.54396L19.4115 6.52379ZM22.5 10C22.5 11.933 20.933 13.5 19 13.5V16.5C22.5898 16.5 25.5 13.5899 25.5 10H22.5ZM19 13.5H15V16.5H19V13.5Z" fill="#631AFD" mask="url(#path-1-inside-1_3_324)"/>
<path d="M6 13.5H18V15H6V13.5Z" fill="white"/>
<path d="M16 10.5L16 20M16 20L19 17M16 20L13 17" stroke="#631AFD" stroke-width="1.5"/>
<path d="M8 22.5L7.46967 23.0303L8 23.5607L8.53033 23.0303L8 22.5ZM7.25 12.5L7.25 22.5L8.75 22.5L8.75 12.5L7.25 12.5ZM8.53033 23.0303L11.5303 20.0303L10.4697 18.9697L7.46967 21.9697L8.53033 23.0303ZM8.53033 21.9697L5.53033 18.9697L4.46967 20.0303L7.46967 23.0303L8.53033 21.9697ZM8.75 12.5C8.75 10.9812 9.98122 9.75 11.5 9.75L11.5 8.25C9.15279 8.25 7.25 10.1528 7.25 12.5L8.75 12.5Z" fill="#631AFD"/>
<circle cx="13.5" cy="9.5" r="2.75" stroke="#631AFD" stroke-width="1.5"/>
</svg>
