<svg width="138" height="41" viewBox="0 0 138 41" fill="none" xmlns="http://www.w3.org/2000/svg">
<g clip-path="url(#clip0_3_476)">
<path d="M47.3807 19.5407C47.3807 14.1279 51.0075 10.9065 55.5638 10.9065C60.1604 10.9065 63.7872 14.1178 63.7872 19.5407V29.104C63.7872 29.9624 63.1103 30.639 62.292 30.639C61.4333 30.639 60.7968 29.9624 60.7968 29.104V19.4599C60.7968 15.6528 58.4834 13.6735 55.5638 13.6735C52.6845 13.6735 50.3711 15.6528 50.3711 19.4599V29.104C50.3711 29.9624 49.6942 30.639 48.8759 30.639C48.0172 30.639 47.3807 29.9624 47.3807 29.104V19.5407Z" fill="white"/>
<path d="M67.9797 20.8133C67.9797 15.2793 72.243 10.9167 77.8499 10.9167C80.5775 10.9167 82.8607 11.967 84.3155 13.3101C84.6488 13.6131 84.8711 14.017 84.8711 14.4714C84.8711 14.8451 84.76 15.1783 84.3862 15.5924L77.7286 23.55C77.4256 23.8833 77.0922 24.0347 76.678 24.0347C75.8597 24.0347 75.2535 23.4793 75.2535 22.6916C75.2535 22.3584 75.3243 22.015 75.5869 21.7626L81.416 14.8855C80.4462 14.0675 79.0622 13.6938 77.8297 13.6938C74.021 13.6938 70.9903 16.8345 70.9903 20.8335C70.9903 24.7921 73.9806 27.9732 77.8297 27.9732C79.9613 27.9732 81.6383 27.0441 82.8001 25.7313C83.2143 25.3576 83.5477 25.0547 84.073 25.0547C84.9317 25.0547 85.5682 25.6505 85.5682 26.4786C85.5682 26.7815 85.3762 27.1855 85.1237 27.4884C83.5578 29.3566 80.9715 30.7401 77.8398 30.7401C72.2733 30.7098 67.9797 26.3372 67.9797 20.8133Z" fill="white"/>
<path d="M88.1646 20.8133C88.1646 15.2793 92.4278 10.9167 98.0347 10.9167C103.642 10.9167 107.864 15.2894 107.864 20.8133C107.864 26.3473 103.642 30.7099 98.0347 30.7099C92.4177 30.7099 88.1646 26.3372 88.1646 20.8133ZM104.834 20.8133C104.834 16.8547 101.884 13.6736 98.0347 13.6736C94.1856 13.6736 91.1953 16.8446 91.1953 20.8133C91.1953 24.7315 94.1856 27.953 98.0347 27.953C101.884 27.9429 104.834 24.7315 104.834 20.8133Z" fill="white"/>
<path d="M112.087 19.5407C112.087 14.1279 115.714 10.9065 120.27 10.9065C124.867 10.9065 128.494 14.1178 128.494 19.5407V29.104C128.494 29.9624 127.817 30.639 126.999 30.639C126.14 30.639 125.503 29.9624 125.503 29.104V19.4599C125.503 15.6528 123.19 13.6735 120.27 13.6735C117.391 13.6735 115.078 15.6528 115.078 19.4599V29.104C115.078 29.9624 114.401 30.639 113.582 30.639C112.724 30.639 112.087 29.9624 112.087 29.104V19.5407Z" fill="white"/>
<path d="M29.075 21.601C28.3982 22.2776 27.4889 22.6512 26.5292 22.6512H22.5084C20.0636 22.6512 18.0734 24.6406 18.0734 27.0845V31.1037C18.0734 32.063 17.6996 32.9719 17.0228 33.6485C14.6184 36.0519 10.5067 34.8401 9.78938 31.5278L6.42525 16.1175C5.75848 13.0576 8.47605 10.3411 11.5371 11.0076L26.9535 14.3704C30.2772 15.0874 31.4794 19.1975 29.075 21.601Z" fill="white"/>
<path d="M34.5101 26.2765L31.146 10.8662C30.4186 7.54375 26.317 6.34202 23.9126 8.74547C23.2358 9.42207 22.862 10.3309 22.862 11.2903V12.4011L27.1757 13.3302C30.065 13.9563 31.8936 16.8142 31.2672 19.6923C31.045 20.692 30.55 21.611 29.8226 22.328C28.9437 23.1965 27.7617 23.6913 26.5292 23.6913H22.5084C20.6394 23.6913 19.1342 25.2061 19.1342 27.0743V29.1445L29.3983 31.3864C32.4492 32.0529 35.1769 29.3364 34.5101 26.2765Z" fill="white"/>
</g>
<defs>
<clipPath id="clip0_3_476">
<rect width="138" height="41" fill="white"/>
</clipPath>
</defs>
</svg>
