<svg width="24" height="24" viewBox="0 0 24 24" fill="none" xmlns="http://www.w3.org/2000/svg">
<path d="M4 6C4 4.89543 4.89543 4 6 4H18C19.1046 4 20 4.89543 20 6V20C20 21.1046 19.1046 22 18 22H6C4.89543 22 4 21.1046 4 20V6Z" fill="#631AFD"/>
<path d="M9 1.5C8.17157 1.5 7.5 2.17157 7.5 3V4C7.5 4.82843 8.17157 5.5 9 5.5H15C15.8284 5.5 16.5 4.82843 16.5 4V3C16.5 2.17157 15.8284 1.5 15 1.5H9Z" fill="#631AFD" stroke="white"/>
<path d="M8 9L8.64656 10.1101L9.90211 10.382L9.04616 11.3399L9.17557 12.618L8 12.1L6.82443 12.618L6.95384 11.3399L6.09789 10.382L7.35344 10.1101L8 9Z" fill="white"/>
<path d="M8 15L8.64656 16.1101L9.90211 16.382L9.04616 17.3399L9.17557 18.618L8 18.1L6.82443 18.618L6.95384 17.3399L6.09789 16.382L7.35344 16.1101L8 15Z" fill="white"/>
<path d="M13 10C12.4477 10 12 10.4477 12 11C12 11.5523 12.4477 12 13 12V10ZM17 12C17.5523 12 18 11.5523 18 11C18 10.4477 17.5523 10 17 10V12ZM13 12H17V10H13V12Z" fill="white"/>
<path d="M13 16C12.4477 16 12 16.4477 12 17C12 17.5523 12.4477 18 13 18V16ZM17 18C17.5523 18 18 17.5523 18 17C18 16.4477 17.5523 16 17 16V18ZM13 18H17V16H13V18Z" fill="white"/>
</svg>
