<svg width="24" height="24" viewBox="0 0 24 24" fill="none" xmlns="http://www.w3.org/2000/svg">
<circle cx="12" cy="12" r="12" fill="#1DA1F2"/>
<path d="M9.40285 19C14.6861 19 17.5754 14.3837 17.5754 10.3807C17.5754 10.2495 17.5728 10.119 17.5672 9.98907C18.1294 9.56008 18.6145 9.02888 19 8.42039C18.4853 8.66169 17.9315 8.8241 17.3506 8.89734C17.9435 8.52226 18.3988 7.92902 18.6136 7.22178C18.0497 7.57457 17.4329 7.82326 16.7897 7.95712C16.2655 7.36829 15.5194 7 14.693 7C13.1068 7 11.8205 8.35667 11.8205 10.029C11.8205 10.2667 11.8458 10.4979 11.895 10.7197C9.5078 10.593 7.39096 9.38756 5.97426 7.55459C5.7191 8.01686 5.58488 8.5423 5.58531 9.0772C5.58531 10.1282 6.09241 11.056 6.86353 11.5988C6.4074 11.5842 5.96129 11.4542 5.56267 11.2199C5.56225 11.2327 5.56225 11.2451 5.56225 11.2586C5.56225 12.7258 6.55234 13.9507 7.86663 14.2282C7.61978 14.2992 7.36507 14.335 7.10923 14.3349C6.92805 14.3347 6.74729 14.3164 6.56939 14.2802C6.93507 15.4839 7.99544 16.3598 9.25261 16.3843C8.26952 17.197 7.0311 17.681 5.68515 17.681C5.45358 17.681 5.22484 17.6671 5 17.6391C6.27121 18.4984 7.78065 18.9999 9.40299 18.9999" fill="white"/>
</svg>
